<?xml version="1.0" encoding="UTF-8"?>
<svg width="25px" height="44px" viewBox="0 0 25 44" version="1.1" xmlns="http://www.w3.org/2000/svg" xmlns:xlink="http://www.w3.org/1999/xlink">
    <!-- Generator: Sketch 42 (36781) - http://www.bohemiancoding.com/sketch -->
    <title>Page 1</title>
    <desc>Created with Sketch.</desc>
    <defs>
        <polygon id="path-1" points="0 43.9328972 0 0.00013733929 24.8775234 0.00013733929 24.8775234 43.9328972 3.51529756e-16 43.9328972"></polygon>
    </defs>
    <g id="Page-2" stroke="none" stroke-width="1" fill="none" fill-rule="evenodd">
        <g id="Page-1">
            <mask id="mask-2" fill="white">
                <use xlink:href="#path-1"></use>
            </mask>
            <g id="Clip-2"></g>
            <path d="M14.6013551,16.1957477 L24.8775234,16.1957477 C16.5443458,25.5219159 8.31911215,34.7272897 0.0941121495,43.9328972 C0.0625700935,43.9142056 0.0312616822,43.895514 -4.67289721e-05,43.8768224 C2.65228972,36.8742523 5.30439252,29.8719159 7.98429907,22.7966822 L0.646448598,22.7966822 C0.739439252,22.5515888 0.801121495,22.373785 0.873551402,22.2006542 C3.89247664,14.9880374 6.91607477,7.77775701 9.92168224,0.55953271 C10.0992523,0.133130841 10.3114019,-0.00285046729 10.7730841,0.000186915888 C14.2775234,0.0223831776 17.7821963,0.0121028037 21.2868692,0.0121028037 L21.9590654,0.0121028037 C19.5071963,5.4053271 17.0835981,10.7361682 14.6013551,16.1957477" id="Fill-1" fill="#1C1C1C" mask="url(#mask-2)"></path>
        </g>
    </g>
</svg>