<svg xmlns="http://www.w3.org/2000/svg" viewBox="0 0 294.7 115.29"><defs><style>.cls-1{fill:#efefef;}</style></defs><title>eye_closed</title><g id="Layer_2" data-name="Layer 2"><g id="Layer_1-2" data-name="Layer 1"><g id="XibWxd.tif"><path class="cls-1" d="M264.48,36.53l-22.8,13.18c2.28,4.49,4.61,9.1,7,13.7,1.86,3.65,3.78,7.27,5.59,10.94,2.59,5.21,1,10.63-3.84,13.1a9.75,9.75,0,0,1-13.2-4.53c-4-7.72-7.86-15.5-11.78-23.25-.41-.81-.86-1.6-1.31-2.43-4.22,1.39-8.32,2.79-12.44,4.1s-8.12,2.48-12.5,3.81c.77,2.92,1.54,5.87,2.33,8.81,1.85,6.85,3.74,13.68,5.56,20.53,1.52,5.72-.94,10.89-5.86,12.46-5.5,1.75-10.85-1.36-12.48-7.33-2.22-8.13-4.38-16.27-6.57-24.41-.56-2.08-1.15-4.15-1.73-6.27-5.19.52-10.25,1-15.3,1.53a37.57,37.57,0,0,1-5,.32c-2.12-.08-2.89.6-2.86,2.87.12,10.22,0,20.44.06,30.65,0,4.21-1.14,7.74-5.13,9.85a9.26,9.26,0,0,1-13.74-7.89c-.16-10.63-.06-21.27-.07-31.91,0-1,0-2,0-3.1L115.1,69.08l-5.84,21.57c-.83,3.06-1.63,6.13-2.5,9.17-1.61,5.61-6.67,8.66-11.9,7.21S87,100.43,88.42,94.9c2.42-9.2,4.94-18.37,7.42-27.55.19-.71.33-1.43.49-2.07l-25-7.84C70,60.09,68.49,63,67,65.83c-3,5.87-6,11.78-9,17.61-1.77,3.34-4.65,5.39-8.48,5.32s-7.1-1.4-8.88-5.07c-1.51-3.1-1.09-6.15.47-9.14q5.78-11.12,11.5-22.27c.46-.88.9-1.78,1.28-2.53L31.08,36.14c-4.47,6.2-9,12.5-13.56,18.77a11.29,11.29,0,0,1-2.39,2.53A9,9,0,0,1,3.21,56.6c-3.45-3.19-4.29-7.82-1.67-11.82C5.12,39.33,9,34.1,12.8,28.78l2.64-3.73c-2.85-3.17-5.79-6-8.2-9.29a12.46,12.46,0,0,1-2.4-6.3c-.24-3.94,2-6.77,5.52-8.51s6.69-1,9.58,1.35c7.3,5.87,14.25,12.21,21.88,17.6,19.82,14,41.88,23.12,65.58,28.26a190.53,190.53,0,0,0,62.65,2.93c33.85-3.91,64.53-16,91.64-36.77,4.51-3.45,8.68-7.36,12.88-11.19S283.7-1,287.8,2.76c3.84,3.55,4.13,8.66.6,13-2.57,3.19-5.31,6.26-8,9.38l-1.12-.75c1,1.49,2,3,3,4.48,3.47,4.92,7,9.78,10.41,14.76,4.13,6.08,1.42,13.63-5.46,15.32-4.24,1-7.3-1-9.69-4.25-3.13-4.24-6.15-8.56-9.22-12.84C267.08,40.08,265.74,38.27,264.48,36.53Z"/></g></g></g></svg>