<?xml version="1.0" encoding="UTF-8"?>
<svg width="295px" height="116px" viewBox="0 0 295 116" version="1.1" xmlns="http://www.w3.org/2000/svg" xmlns:xlink="http://www.w3.org/1999/xlink">
    <!-- Generator: Sketch 42 (36781) - http://www.bohemiancoding.com/sketch -->
    <title>Shape</title>
    <desc>Created with Sketch.</desc>
    <defs></defs>
    <g id="Page-2" stroke="none" stroke-width="1" fill="none" fill-rule="evenodd">
        <g id="Desktop-HD-Copy-3" transform="translate(-221.000000, -275.000000)" fill-rule="nonzero" fill="#004FFF">
            <g id="eye_closed" transform="translate(221.000000, 274.000000)">
                <path d="M264.48,37.53 L241.68,50.71 C243.96,55.2 246.29,59.81 248.68,64.41 C250.54,68.06 252.46,71.68 254.27,75.35 C256.86,80.56 255.27,85.98 250.43,88.45 C248.084223,89.6327444 245.360416,89.8188177 242.875587,88.9660696 C240.390759,88.1133215 238.355195,86.2939188 237.23,83.92 C233.23,76.2 229.37,68.42 225.45,60.67 C225.04,59.86 224.59,59.07 224.14,58.24 C219.92,59.63 215.82,61.03 211.7,62.34 C207.58,63.65 203.58,64.82 199.2,66.15 C199.97,69.07 200.74,72.02 201.53,74.96 C203.38,81.81 205.27,88.64 207.09,95.49 C208.61,101.21 206.15,106.38 201.23,107.95 C195.73,109.7 190.38,106.59 188.75,100.62 C186.53,92.49 184.37,84.35 182.18,76.21 C181.62,74.13 181.03,72.06 180.45,69.94 C175.26,70.46 170.2,70.94 165.15,71.47 C163.49231,71.6878026 161.82193,71.7947069 160.15,71.79 C158.03,71.71 157.26,72.39 157.29,74.66 C157.41,84.88 157.29,95.1 157.35,105.31 C157.35,109.52 156.21,113.05 152.22,115.16 C149.384827,116.728411 145.936098,116.70088 143.126325,115.087408 C140.316551,113.473936 138.554457,110.509225 138.48,107.27 C138.32,96.64 138.42,86 138.41,75.36 L138.41,72.26 L115.1,70.08 L109.26,91.65 C108.43,94.71 107.63,97.78 106.76,100.82 C105.15,106.43 100.09,109.48 94.86,108.03 C89.63,106.58 87,101.43 88.42,95.9 C90.84,86.7 93.36,77.53 95.84,68.35 C96.03,67.64 96.17,66.92 96.33,66.28 L71.33,58.44 C70,61.09 68.49,64 67,66.83 C64,72.7 61,78.61 58,84.44 C56.23,87.78 53.35,89.83 49.52,89.76 C45.69,89.69 42.42,88.36 40.64,84.69 C39.13,81.59 39.55,78.54 41.11,75.55 C44.9633333,68.1366667 48.7966667,60.7133333 52.61,53.28 C53.07,52.4 53.51,51.5 53.89,50.75 L31.08,37.14 C26.61,43.34 22.08,49.64 17.52,55.91 C16.8588909,56.8717965 16.0526466,57.7252685 15.13,58.44 C11.5171663,61.2186733 6.39743847,60.8578871 3.21,57.6 C-0.24,54.41 -1.08,49.78 1.54,45.78 C5.12,40.33 9,35.1 12.8,29.78 L15.44,26.05 C12.59,22.88 9.65,20.05 7.24,16.76 C5.87628793,14.9204349 5.04588993,12.7406402 4.84,10.46 C4.6,6.52 6.84,3.69 10.36,1.95 C13.88,0.21 17.05,0.95 19.94,3.3 C27.24,9.17 34.19,15.51 41.82,20.9 C61.64,34.9 83.7,44.02 107.4,49.16 C127.978101,53.5907374 149.148193,54.5808152 170.05,52.09 C203.9,48.18 234.58,36.09 261.69,15.32 C266.2,11.87 270.37,7.96 274.57,4.13 C278.77,0.3 283.7,5.88418203e-15 287.8,3.76 C291.64,7.31 291.93,12.42 288.4,16.76 C285.83,19.95 283.09,23.02 280.4,26.14 L279.28,25.39 C280.28,26.88 281.28,28.39 282.28,29.87 C285.75,34.79 289.28,39.65 292.69,44.63 C296.82,50.71 294.11,58.26 287.23,59.95 C282.99,60.95 279.93,58.95 277.54,55.7 C274.41,51.46 271.39,47.14 268.32,42.86 C267.08,41.08 265.74,39.27 264.48,37.53 Z" id="Shape"></path>
            </g>
        </g>
    </g>
</svg>