<svg xmlns="http://www.w3.org/2000/svg" viewBox="0 0 291.61 169.64"><defs><style>.cls-1{fill:#efefef;}</style></defs><title>eye_open</title><g id="Layer_2" data-name="Layer 2"><g id="Layer_1-2" data-name="Layer 1"><g id="jx3OJF.tif"><path class="cls-1" d="M145.85,169.64C109.66,169,77,157.94,47.44,137.45A200.72,200.72,0,0,1,5.84,98.85c-7.77-9.56-7.8-19.31,0-28.78C26.06,45.52,50.39,26.28,79.69,13.61a162.7,162.7,0,0,1,51.7-13c45.64-3.71,86,9.85,121.84,37.65a205.49,205.49,0,0,1,33.83,33.5,20.2,20.2,0,0,1,.12,25.38,198.37,198.37,0,0,1-58,49.72,163.39,163.39,0,0,1-54.06,19.57C165.43,168,156.69,169.64,145.85,169.64ZM83.41,84.22c.16,35.06,27.79,62.92,62.57,62.75,35.47-.18,62.3-28.39,62.18-62C208,49.18,180,22.08,145.52,22.34,108.27,22.61,83.4,53.13,83.41,84.22ZM218.9,41.7c15.45,28.92,15.51,57.14.3,85.4,10.71-3.62,42.61-31,49.68-42.65A174.16,174.16,0,0,0,218.9,41.7ZM72.18,127c-14.85-28.4-14.89-56.61.6-85.27A177.4,177.4,0,0,0,22.63,84.65,177.37,177.37,0,0,0,72.18,127Z"/><path class="cls-1" d="M106.5,68.94c4.45,8.42,11.39,12.67,18.8,11.64A18.24,18.24,0,0,0,141,66.51c2-8-1.39-14.36-11-20.92,14.17-6.67,35.62-4,48.7,12.21a43.38,43.38,0,0,1-2.45,56.72c-14.38,15.13-38.91,17.31-55.7,5.08C102.18,106.22,99.8,82.86,106.5,68.94Z"/></g></g></g></svg>