<?xml version="1.0" encoding="UTF-8"?>
<svg width="292px" height="170px" viewBox="0 0 292 170" version="1.1" xmlns="http://www.w3.org/2000/svg" xmlns:xlink="http://www.w3.org/1999/xlink">
    <!-- Generator: Sketch 42 (36781) - http://www.bohemiancoding.com/sketch -->
    <title>eye_open</title>
    <desc>Created with Sketch.</desc>
    <defs></defs>
    <g id="Page-2" stroke="none" stroke-width="1" fill="none" fill-rule="evenodd">
        <g id="Desktop-HD-Copy-3" transform="translate(-163.000000, -513.000000)" fill-rule="nonzero" fill="#004FFF">
            <g id="eye_open" transform="translate(163.000000, 513.000000)">
                <path d="M145.85,169.64 C109.66,169 77,157.94 47.44,137.45 C31.8152351,126.618422 17.80861,113.62189 5.84,98.85 C-1.93,89.29 -1.96,79.54 5.84,70.07 C26.06,45.52 50.39,26.28 79.69,13.61 C96.0913757,6.46364788 113.559131,2.07136888 131.39,0.61 C177.03,-3.1 217.39,10.46 253.23,38.26 C265.766552,48.0781882 277.119397,59.3202908 287.06,71.76 C293.073282,79.1355939 293.123269,89.707874 287.18,97.14 C271.250694,117.314684 251.552144,134.201097 229.18,146.86 C212.458378,156.52739 194.155077,163.15328 175.12,166.43 C165.43,168 156.69,169.64 145.85,169.64 Z M83.41,84.22 C83.57,119.28 111.2,147.14 145.98,146.97 C181.45,146.79 208.28,118.58 208.16,84.97 C208,49.18 180,22.08 145.52,22.34 C108.27,22.61 83.4,53.13 83.41,84.22 Z M218.9,41.7 C234.35,70.62 234.41,98.84 219.2,127.1 C229.91,123.48 261.81,96.1 268.88,84.45 C255.086271,67.1550733 238.123874,52.64642 218.9,41.7 L218.9,41.7 Z M72.18,127 C57.33,98.6 57.29,70.39 72.78,41.73 C53.5254237,52.7732415 36.5143349,67.3318842 22.63,84.65 C36.3886898,101.706396 53.1889895,116.065481 72.18,127 L72.18,127 Z" id="Shape"></path>
                <path d="M106.5,68.94 C110.95,77.36 117.89,81.61 125.3,80.58 C132.988251,79.6955459 139.281438,74.0557275 141,66.51 C143,58.51 139.61,52.15 130,45.59 C144.17,38.92 165.62,41.59 178.7,57.8 C192.086299,74.6903096 191.042865,98.8468792 176.25,114.52 C161.87,129.65 137.34,131.83 120.55,119.6 C102.18,106.22 99.8,82.86 106.5,68.94 Z" id="Shape"></path>
            </g>
        </g>
    </g>
</svg>