<?xml version="1.0" encoding="UTF-8"?>
<svg width="91px" height="116px" viewBox="0 0 91 116" version="1.1" xmlns="http://www.w3.org/2000/svg" xmlns:xlink="http://www.w3.org/1999/xlink">
    <!-- Generator: Sketch 42 (36781) - http://www.bohemiancoding.com/sketch -->
    <title>Skull</title>
    <desc>Created with Sketch.</desc>
    <defs>
        <polygon id="path-1" points="4.6972963e-05 0.222041763 90.8177006 0.222041763 90.8177006 95.3160832 4.6972963e-05 95.3160832 4.6972963e-05 0.222041763"></polygon>
    </defs>
    <g id="Page-2" stroke="none" stroke-width="1" fill="none" fill-rule="evenodd">
        <g id="Desktop-HD-Copy-3" transform="translate(-675.000000, -413.000000)">
            <g id="Skull" transform="translate(675.000000, 413.000000)">
                <g id="White" transform="translate(0.000000, 0.047100)" fill="#F6F6F6">
                    <path d="M90.5255,38.0105893 C88.9430208,23.6674988 81.5590208,12.9753132 68.8474583,6.17276102 C56.3243958,-0.528593968 43.9348542,-1.37612065 30.4064583,2.65615777 C18.9875833,6.05918329 10.1689792,12.8980696 4.57139583,23.490942 C-0.358583333,32.820464 -0.879395833,42.7587842 1.02022917,52.9032668 C1.94295833,57.8328631 3.414125,63.0143759 3.32989583,68.1439443 C3.30958333,69.3798422 4.33360417,70.1466265 5.65066667,70.2564362 C6.54089583,70.3304501 7.4319375,70.4284176 8.32379167,70.440529 C9.15010417,70.4518329 9.79035417,70.7799165 10.1075,71.5208631 C10.3520625,72.0927889 10.7049583,73.4148121 10.9186458,73.9948121 C11.249875,73.9218747 11.21575,73.2471369 11.54075,73.3792854 C12.4989583,73.7690023 13.21775,74.2534571 13.8477083,75.0754153 C14.0830625,75.3825058 14.2975625,75.6974014 14.5082708,76.0214478 C14.6664375,76.2650209 14.7073333,76.3578747 14.7961667,76.4108956 C15.0215,76.5443898 16.0457917,76.7771972 16.4948333,77.0186172 C16.5663333,77.0571044 16.6345833,77.1007053 16.7028333,77.1443063 C16.495375,76.1557494 16.2437708,75.171768 15.9385417,74.1937077 C15.920125,74.1339582 15.959125,74.0569838 16.029,73.66 C17.2209375,75.2627378 18.3676458,76.6243248 19.3109583,78.1132158 C20.9958125,80.7723341 22.5652917,83.5038515 24.1594167,86.2189513 C24.314875,86.4840557 24.3576667,86.8436288 24.3633542,87.1606775 C24.3858333,88.4199907 24.3595625,89.6803805 24.3763542,90.9396937 C24.3947708,92.3072019 25.319125,93.3323619 26.5812083,93.4219861 C27.9107292,93.5164548 28.9742917,92.5949142 29.1484375,91.1889188 C29.1933958,90.8258469 29.2139792,90.4600835 29.248375,90.065522 L33.6656667,90.065522 C33.6656667,90.8742923 33.6483333,91.8160186 33.6702708,92.7566682 C33.6968125,93.8945986 34.177,94.7781903 35.2955417,95.1730209 C36.8189792,95.7104965 38.3313125,94.6767239 38.4775625,93.0228492 C38.5230625,92.5077123 38.5030208,91.9866543 38.5073542,91.4680186 C38.5116875,90.9628399 38.5084375,90.4576613 38.5084375,90.0609466 L42.9831458,90.0609466 C42.9831458,90.797587 42.9742083,91.666645 42.9853125,92.5351647 C43.0064375,94.1992668 43.9613958,95.2917123 45.3905833,95.3027471 C46.8238333,95.3137819 47.8099375,94.2181067 47.8307917,92.5749977 C47.8418958,91.6940974 47.8326875,90.8126589 47.8326875,90.0547564 L52.312,90.0547564 C52.312,90.8328445 52.290875,91.7366218 52.3166042,92.6393225 C52.3626458,94.2673596 53.2823958,95.2782552 54.7031875,95.3032854 C56.0996042,95.3280464 57.0778542,94.306116 57.146375,92.6939582 C57.1851042,91.7796845 57.1534167,90.8627193 57.1534167,90.0652529 L61.527375,90.0652529 C61.5799167,90.4665429 61.6262292,90.9267749 61.7023333,91.3827007 C61.9081667,92.619406 62.8915625,93.4497077 64.1005625,93.4230626 C65.2935833,93.3964176 66.2767083,92.5025986 66.4402917,91.2930766 C66.4549167,91.1832668 66.4790208,91.0678051 66.4614167,90.9609559 C65.9416875,87.80258 67.1187292,85.1714524 68.8777917,82.6312947 C70.4361667,80.3818097 71.7513333,77.9670719 73.229,75.6602599 C73.6403958,75.0175499 74.2473333,74.4983759 74.79225,73.8922691 C74.7199375,74.2930209 74.6419375,74.6894664 74.5628542,75.0848353 C74.7787083,75.0135128 75.0183958,74.9715267 75.2827292,74.9677587 C76.7514583,74.9456891 77.7657292,74.8269977 79.2217292,75.0092065 C79.4248542,74.3912575 79.6439583,73.7762691 79.88175,73.1650487 C80.962375,70.3864316 81.3813542,70.3756659 84.3526667,70.2968074 C86.7874583,70.2322135 87.5506667,69.5074153 87.5812708,67.0644176 C87.6178333,64.1525754 87.621625,60.8679722 88.4993958,58.0974292 C90.5769583,51.5392575 91.2748958,44.8010302 90.5255,38.0105893" id="Fill-1"></path>
                    <path d="M25.0606146,108.362732 L24.7862604,108.230584 L24.5514479,108.03734 C24.4122396,107.922686 21.1040104,105.189823 17.9777812,101.565563 C13.3939271,96.2510942 11.5611979,91.7230571 12.5310521,88.107948 C13.8264479,83.2811638 11.0839896,74.0840594 9.91778125,70.9469457 C9.91778125,70.9469457 76.1091771,69.3315582 76.1571146,69.2029086 L80.8996771,70.9480223 L78.5285312,70.0754654 L80.8999479,70.9469457 C79.7340104,74.0840594 76.9912812,83.2811638 78.2866771,88.107948 C79.2565312,91.7230571 77.4238021,96.2510942 72.8399479,101.565563 C69.7137187,105.189823 66.4054896,107.922686 66.2662812,108.03734 L66.0314687,108.230584 L65.7571146,108.362732 C63.2036979,109.592978 50.2215729,115.730751 45.4088646,115.730751 C40.5961562,115.730751 27.6140312,109.592978 25.0606146,108.362732 Z" id="Fill-8-Copy"></path>
                </g>
                <g id="Page-1">
                    <g id="Group-3" transform="translate(0.000000, 0.047100)">
                        <mask id="mask-2" fill="white">
                            <use xlink:href="#path-1"></use>
                        </mask>
                        <g id="Clip-2"></g>
                        <path d="M84.89975,52.7926497 C83.9927292,56.8620696 83.4088125,61.3489281 82.4519583,65.3219954 C80.344875,65.9929652 77.9731875,66.5299026 75.7918958,67.4923527 C72.2057917,69.0746357 69.6634792,71.9086961 67.6392708,75.1809188 C66.1968125,77.5119536 64.9279583,79.9492993 63.4776458,82.2752204 C62.9005,83.200529 62.1565208,84.1034988 61.2887708,84.7532065 C59.4029583,86.165123 57.5000833,85.3259397 57.1168542,83.0385058 C56.8785208,81.6179768 55.9419792,80.7526868 54.6725833,80.7806775 C53.4061667,80.8089374 52.5194583,81.7008724 52.3236458,83.1442784 C52.1324375,84.5535035 51.2376042,85.4357494 50.0296875,85.4056056 C48.8418125,85.376 48.0285,84.5486589 47.8375625,83.1760371 C47.6279375,81.6707285 46.7079167,80.7688353 45.3913958,80.7785244 C44.0765,80.7884826 43.1835625,81.6828399 42.9712292,83.2029513 C42.7811042,84.564 41.9426042,85.3959165 40.7514792,85.4047981 C39.5733542,85.4136798 38.679875,84.5529652 38.4927292,83.2285197 C38.2738958,81.6814942 37.4075,80.7903666 36.1112917,80.7798701 C34.8153542,80.7691044 33.944625,81.6187842 33.6637708,83.1687703 C33.3041042,85.1542274 31.72325,86.0286682 29.9769167,84.9892436 C28.9986667,84.4070905 28.1230625,83.4777448 27.5033958,82.5134107 C25.982125,80.1455035 24.6861875,77.636297 23.2077083,75.2395916 C20.8947917,71.4904501 17.9018125,68.4346172 13.6619167,66.87871 C11.8971667,66.2311555 10.0221875,65.8793875 8.385,65.443109 C7.33145833,61.0200371 6.55985417,56.2621531 5.74545833,51.8746079 C3.88591667,41.8520464 4.6564375,32.1632204 10.2718958,23.293123 C15.2858333,15.3730951 22.4634583,10.1678979 31.364125,7.38874246 C42.826875,3.80942923 53.3205833,4.21610209 64.2506042,9.28188399 C76.3397917,14.8846032 83.7210833,24.2666079 85.6052708,37.553587 C86.3275833,42.6473596 86.0207292,47.7621253 84.89975,52.7926497 M90.5255,38.0105893 C88.9430208,23.6674988 81.5590208,12.9753132 68.8474583,6.17276102 C56.3243958,-0.528593968 43.9348542,-1.37612065 30.4064583,2.65615777 C18.9875833,6.05918329 10.1689792,12.8980696 4.57139583,23.490942 C-0.358583333,32.820464 -0.879395833,42.7587842 1.02022917,52.9032668 C1.94295833,57.8328631 3.414125,63.0143759 3.32989583,68.1439443 C3.30958333,69.3798422 4.33360417,70.1466265 5.65066667,70.2564362 C6.54089583,70.3304501 7.4319375,70.4284176 8.32379167,70.440529 C9.15010417,70.4518329 9.79035417,70.7799165 10.1075,71.5208631 C10.3520625,72.0927889 10.7049583,73.4148121 10.9186458,73.9948121 C11.249875,73.9218747 11.21575,73.2471369 11.54075,73.3792854 C12.4989583,73.7690023 13.21775,74.2534571 13.8477083,75.0754153 C14.0830625,75.3825058 14.2975625,75.6974014 14.5082708,76.0214478 C14.6664375,76.2650209 14.7073333,76.3578747 14.7961667,76.4108956 C15.0215,76.5443898 16.0457917,76.7771972 16.4948333,77.0186172 C16.5663333,77.0571044 16.6345833,77.1007053 16.7028333,77.1443063 C16.495375,76.1557494 16.2437708,75.171768 15.9385417,74.1937077 C15.920125,74.1339582 15.959125,74.0569838 16.029,73.66 C17.2209375,75.2627378 18.3676458,76.6243248 19.3109583,78.1132158 C20.9958125,80.7723341 22.5652917,83.5038515 24.1594167,86.2189513 C24.314875,86.4840557 24.3576667,86.8436288 24.3633542,87.1606775 C24.3858333,88.4199907 24.3595625,89.6803805 24.3763542,90.9396937 C24.3947708,92.3072019 25.319125,93.3323619 26.5812083,93.4219861 C27.9107292,93.5164548 28.9742917,92.5949142 29.1484375,91.1889188 C29.1933958,90.8258469 29.2139792,90.4600835 29.248375,90.065522 L33.6656667,90.065522 C33.6656667,90.8742923 33.6483333,91.8160186 33.6702708,92.7566682 C33.6968125,93.8945986 34.177,94.7781903 35.2955417,95.1730209 C36.8189792,95.7104965 38.3313125,94.6767239 38.4775625,93.0228492 C38.5230625,92.5077123 38.5030208,91.9866543 38.5073542,91.4680186 C38.5116875,90.9628399 38.5084375,90.4576613 38.5084375,90.0609466 L42.9831458,90.0609466 C42.9831458,90.797587 42.9742083,91.666645 42.9853125,92.5351647 C43.0064375,94.1992668 43.9613958,95.2917123 45.3905833,95.3027471 C46.8238333,95.3137819 47.8099375,94.2181067 47.8307917,92.5749977 C47.8418958,91.6940974 47.8326875,90.8126589 47.8326875,90.0547564 L52.312,90.0547564 C52.312,90.8328445 52.290875,91.7366218 52.3166042,92.6393225 C52.3626458,94.2673596 53.2823958,95.2782552 54.7031875,95.3032854 C56.0996042,95.3280464 57.0778542,94.306116 57.146375,92.6939582 C57.1851042,91.7796845 57.1534167,90.8627193 57.1534167,90.0652529 L61.527375,90.0652529 C61.5799167,90.4665429 61.6262292,90.9267749 61.7023333,91.3827007 C61.9081667,92.619406 62.8915625,93.4497077 64.1005625,93.4230626 C65.2935833,93.3964176 66.2767083,92.5025986 66.4402917,91.2930766 C66.4549167,91.1832668 66.4790208,91.0678051 66.4614167,90.9609559 C65.9416875,87.80258 67.1187292,85.1714524 68.8777917,82.6312947 C70.4361667,80.3818097 71.7513333,77.9670719 73.229,75.6602599 C73.6403958,75.0175499 74.2473333,74.4983759 74.79225,73.8922691 C74.7199375,74.2930209 74.6419375,74.6894664 74.5628542,75.0848353 C74.7787083,75.0135128 75.0183958,74.9715267 75.2827292,74.9677587 C76.7514583,74.9456891 77.7657292,74.8269977 79.2217292,75.0092065 C79.4248542,74.3912575 79.6439583,73.7762691 79.88175,73.1650487 C80.962375,70.3864316 81.3813542,70.3756659 84.3526667,70.2968074 C86.7874583,70.2322135 87.5506667,69.5074153 87.5812708,67.0644176 C87.6178333,64.1525754 87.621625,60.8679722 88.4993958,58.0974292 C90.5769583,51.5392575 91.2748958,44.8010302 90.5255,38.0105893" id="Fill-1" fill="#C0985A" mask="url(#mask-2)"></path>
                    </g>
                    <path d="M34.9649896,45.5313995 C34.9649896,41.0690329 31.3648021,37.4619981 26.9125729,37.4633439 C22.4302812,37.4646896 18.8038229,41.0351211 18.7802604,45.469497 C18.7566979,49.9531258 22.4560104,53.6643183 26.9063437,53.6209865 C31.3807812,53.5776548 34.9649896,49.9795016 34.9649896,45.5313995 M26.8364687,32.6551304 C33.9152396,32.5988798 39.8058646,38.4045318 39.8483854,45.4781095 C39.8906354,52.4938218 34.1327187,58.2930144 27.0452812,58.3729494 C19.8849896,58.4536919 13.9827187,52.7435852 13.9299062,45.6842719 C13.8760104,38.5245689 19.6336562,32.7119193 26.8364687,32.6551304" id="Fill-4" fill="#C0985A"></path>
                    <path d="M55.8536604,45.5421652 C55.8509521,49.9620074 59.4825563,53.5927267 63.9350563,53.6220631 C68.3182229,53.6505921 72.0578896,49.9507035 72.0746813,45.5685411 C72.0914729,41.1069819 68.4089521,37.4525782 63.9047229,37.4614599 C59.4508688,37.4703415 55.8560979,41.0781838 55.8536604,45.5421652 M63.9813687,58.3729494 C56.8300146,58.3952882 51.0379729,52.6771072 51.0057437,45.5623508 C50.9737854,38.4885039 56.7100354,32.7517522 63.9112229,32.6548613 C70.9561396,32.5603926 76.8448687,38.3851536 76.8882021,45.4912974 C76.9312646,52.5724111 71.1419312,58.3506107 63.9813687,58.3729494" id="Fill-6" fill="#C0985A"></path>
                    <path d="M45.4088646,115.777851 C40.5961562,115.777851 27.6140312,109.640078 25.0606146,108.409832 L24.7862604,108.277684 L24.5514479,108.08444 C24.4122396,107.969786 21.1040104,105.236923 17.9777812,101.612663 C13.3939271,96.298194 11.5611979,91.7701568 12.5310521,88.1550478 C13.8264479,83.3282636 11.0839896,74.1311592 9.91778125,70.9940455 L14.6606146,69.2500084 C14.7085521,69.378658 15.8460521,72.4471406 16.7666146,76.3930246 C18.0490104,81.8888947 18.2683854,86.2818227 17.4179687,89.450426 C17.1858646,90.315716 17.1457812,92.9094329 21.7773021,98.2946858 C24.1823021,101.092143 26.7869062,103.371772 27.5533646,104.024978 C33.4873229,106.86496 42.7676979,110.751632 45.4088646,110.751632 C48.0524687,110.751632 57.3317604,106.865229 63.2643646,104.024978 C64.0294687,103.372579 66.6348854,101.092412 69.0404271,98.2946858 C73.6719479,92.9094329 73.6318646,90.315716 73.3997604,89.450426 C72.5493437,86.2818227 72.7687187,81.8888947 74.0511146,76.3930246 C74.9716771,72.4471406 76.1091771,69.378658 76.1571146,69.2500084 L80.8996771,70.995122 L78.5285312,70.1225652 L80.8999479,70.9940455 C79.7340104,74.1311592 76.9912812,83.3282636 78.2866771,88.1550478 C79.2565312,91.7701568 77.4238021,96.298194 72.8399479,101.612663 C69.7137187,105.236923 66.4054896,107.969786 66.2662812,108.08444 L66.0314687,108.277684 L65.7571146,108.409832 C63.2036979,109.640078 50.2215729,115.777851 45.4088646,115.777851" id="Fill-8" fill="#C0985A"></path>
                    <path d="M18.3223625,55.004697 L13.4259667,54.7046042 L13.4701125,54.1297179 C13.9066958,48.2094116 14.20705,33.1291425 7.588425,20.9994719 L11.8990083,18.6781262 C19.1364875,31.9392677 18.8307167,48.1362051 18.3627167,54.4847155 L18.3223625,55.004697 Z" id="Fill-10" fill="#C0985A"></path>
                    <path d="M72.5022458,55.0961782 C72.430475,54.2101643 72.3606,53.1449021 72.3104958,51.9329578 C72.0104125,44.5848557 72.4708292,30.4928742 78.9182875,18.6780993 L83.2288708,20.999445 C77.3414958,31.7890599 76.9306417,44.8887165 77.2106833,51.7354079 C77.256725,52.8738766 77.3230792,53.8734682 77.3913292,54.7008093 L72.5022458,55.0961782 Z" id="Fill-12" fill="#C0985A"></path>
                    <path d="M72.4902208,54.8002302 C72.5427625,55.201251 72.589075,55.6617522 72.6651792,56.1179471 C72.8710125,57.3541142 73.8546792,58.1846849 75.0634083,58.1580399 C76.2567,58.1313949 77.2395542,57.2375759 77.4031375,56.0280538 C77.4177625,55.9179749 77.4285958,55.8038589 77.4242625,55.6959332 C77.3928458,54.9329169 77.3573667,54.2592557 77.3042833,53.7435805" id="Fill-14" fill="#C0985A"></path>
                    <path d="M13.4915354,53.7291814 C13.4384521,54.2445875 13.4029729,54.9182487 13.3715563,55.681265 C13.3669521,55.7891907 13.3780563,55.9033067 13.3926813,56.0131165 C13.5562646,57.2226385 14.5391188,58.1167267 15.7321396,58.1431026 C16.9411396,58.1700167 17.9248063,57.3394459 18.1306396,56.1030097 C18.2067438,55.647084 18.2530563,55.1865828 18.3053271,54.7855619" id="Fill-16" fill="#C0985A"></path>
                    <path d="M45.4142813,65.6142561 C43.0084688,65.6142561 41.9297396,71.436864 40.2332396,70.6595833 C38.2458646,69.7490775 37.4859063,66.7338849 38.5613854,64.6173559 C39.9759479,61.8328176 41.7607396,59.2229522 43.6135104,56.719936 C44.8314479,55.0744046 46.5425729,55.2445021 47.7388438,56.8313606 C49.4196354,59.0614673 51.0584479,61.3696251 52.3779479,63.8395369 C53.6752396,66.2685392 53.1923438,68.8081587 51.6420938,70.1064974 C50.0921146,71.2861448 47.0625729,65.203277 45.4142813,65.6142561" id="Fill-18" fill="#C0985A"></path>
                </g>
            </g>
        </g>
    </g>
</svg>