<?xml version="1.0" encoding="UTF-8"?>
<svg width="251px" height="259px" viewBox="0 0 251 259" version="1.1" xmlns="http://www.w3.org/2000/svg" xmlns:xlink="http://www.w3.org/1999/xlink">
    <!-- Generator: Sketch 42 (36781) - http://www.bohemiancoding.com/sketch -->
    <title>Group 4</title>
    <desc>Created with Sketch.</desc>
    <defs></defs>
    <g id="Page-2" stroke="none" stroke-width="1" fill="none" fill-rule="evenodd">
        <g id="Desktop-HD-Copy-4" transform="translate(-595.000000, -342.000000)" fill="#EFEFEF">
            <g id="Group-4" transform="translate(595.000000, 342.000000)">
                <path d="M164.823478,125.1165 C164.823478,124.012495 165.29114,123.084837 166.226478,122.3335 C167.161816,121.582163 168.403803,121.2065 169.952478,121.2065 C171.501152,121.2065 172.74314,121.57833 173.678478,122.322 C174.613816,123.065671 175.112144,124.073827 175.173478,125.3465 L171.861478,125.3465 C171.769477,124.273162 171.11015,123.7365 169.883478,123.7365 C169.270141,123.7365 168.794813,123.859166 168.457478,124.1045 C168.120143,124.349835 167.951478,124.687165 167.951478,125.1165 C167.951478,125.545836 168.204475,125.883166 168.710478,126.1285 C169.21648,126.373835 169.829807,126.5655 170.550478,126.7035 C171.271148,126.841501 171.987974,127.013999 172.700978,127.221 C173.413981,127.428001 174.023475,127.795998 174.529478,128.325 C175.03548,128.854003 175.288478,129.555496 175.288478,130.4295 C175.288478,131.579506 174.801649,132.51483 173.827978,133.2355 C172.854306,133.956171 171.612319,134.3165 170.101978,134.3165 C168.591637,134.3165 167.353483,133.960004 166.387478,133.247 C165.421473,132.533997 164.892478,131.510507 164.800478,130.1765 L168.112478,130.1765 C168.235145,131.249839 168.917471,131.7865 170.159478,131.7865 C170.757481,131.7865 171.240476,131.652335 171.608478,131.384 C171.97648,131.115666 172.160478,130.763003 172.160478,130.326 C172.160478,129.888998 171.90748,129.544002 171.401478,129.291 C170.895475,129.037999 170.282148,128.842501 169.561478,128.7045 C168.840807,128.5665 168.123981,128.397835 167.410978,128.1985 C166.697974,127.999166 166.08848,127.64267 165.582478,127.129 C165.076475,126.615331 164.823478,125.944504 164.823478,125.1165 Z M190.143478,131.4185 L191.684478,131.4185 L191.684478,134.1325 L189.637478,134.1325 C188.334138,134.1325 187.329815,133.833503 186.624478,133.2355 C185.919141,132.637497 185.566478,131.648507 185.566478,130.2685 L185.566478,124.0355 L184.209478,124.0355 L184.209478,121.3905 L185.566478,121.3905 L185.566478,118.2395 L188.809478,118.2395 L188.809478,121.3905 L191.661478,121.3905 L191.661478,124.0355 L188.809478,124.0355 L188.809478,130.2685 C188.809478,130.682502 188.909143,130.977666 189.108478,131.154 C189.307812,131.330335 189.652809,131.4185 190.143478,131.4185 Z M204.607478,121.3905 L204.607478,123.6445 C205.466149,122.019159 206.708136,121.2065 208.333478,121.2065 L208.333478,124.5185 L207.528478,124.5185 C206.562473,124.5185 205.834147,124.759998 205.343478,125.243 C204.852809,125.726003 204.607478,126.557828 204.607478,127.7385 L204.607478,134.1325 L201.364478,134.1325 L201.364478,121.3905 L204.607478,121.3905 Z M226.914478,127.7615 C226.914478,126.596161 226.577148,125.680004 225.902478,125.013 C225.227808,124.345997 224.438149,124.0125 223.533478,124.0125 C222.628807,124.0125 221.842981,124.342164 221.175978,125.0015 C220.508975,125.660837 220.175478,126.573161 220.175478,127.7385 C220.175478,128.903839 220.512808,129.82383 221.187478,130.4985 C221.862148,131.17317 222.647973,131.5105 223.544978,131.5105 C224.441982,131.5105 225.227808,131.177004 225.902478,130.51 C226.577148,129.842997 226.914478,128.926839 226.914478,127.7615 Z M216.886478,127.7385 C216.886478,125.821824 217.453806,124.254006 218.588478,123.035 C219.72315,121.815994 221.164469,121.2065 222.912478,121.2065 C224.660487,121.2065 225.994473,121.92716 226.914478,123.3685 L226.914478,121.3905 L230.134478,121.3905 L230.134478,134.1325 L226.914478,134.1325 L226.914478,131.9935 C225.948473,133.542175 224.60682,134.3165 222.889478,134.3165 C221.172136,134.3165 219.742317,133.69934 218.599978,132.465 C217.457639,131.230661 216.886478,129.655177 216.886478,127.7385 Z M245.679478,131.4185 L247.220478,131.4185 L247.220478,134.1325 L245.173478,134.1325 C243.870138,134.1325 242.865815,133.833503 242.160478,133.2355 C241.455141,132.637497 241.102478,131.648507 241.102478,130.2685 L241.102478,124.0355 L239.745478,124.0355 L239.745478,121.3905 L241.102478,121.3905 L241.102478,118.2395 L244.345478,118.2395 L244.345478,121.3905 L247.197478,121.3905 L247.197478,124.0355 L244.345478,124.0355 L244.345478,130.2685 C244.345478,130.682502 244.445144,130.977666 244.644478,131.154 C244.843812,131.330335 245.188809,131.4185 245.679478,131.4185 Z M262.282478,134.3165 C260.427136,134.3165 258.916817,133.714673 257.751478,132.511 C256.586139,131.307328 256.003478,129.71651 256.003478,127.7385 C256.003478,125.76049 256.589972,124.17734 257.762978,122.989 C258.935984,121.800661 260.453969,121.2065 262.316978,121.2065 C264.179987,121.2065 265.709472,121.785328 266.905478,122.943 C268.101484,124.100673 268.699478,125.645491 268.699478,127.5775 C268.699478,128.022169 268.668812,128.436165 268.607478,128.8195 L259.315478,128.8195 C259.392145,129.647504 259.698809,130.314498 260.235478,130.8205 C260.772148,131.326503 261.454474,131.5795 262.282478,131.5795 C263.401817,131.5795 264.229809,131.119505 264.766478,130.1995 L268.262478,130.1995 C267.894476,131.41084 267.181483,132.39983 266.123478,133.1665 C265.065473,133.933171 263.785152,134.3165 262.282478,134.3165 Z M264.409978,124.7025 C263.834975,124.196498 263.141149,123.9435 262.328478,123.9435 C261.515807,123.9435 260.837314,124.196498 260.292978,124.7025 C259.748642,125.208503 259.422812,125.883163 259.315478,126.7265 L265.341478,126.7265 C265.295478,125.883163 264.984981,125.208503 264.409978,124.7025 Z M277.505478,127.7385 C277.505478,125.821824 278.072806,124.254006 279.207478,123.035 C280.342151,121.815994 281.78347,121.2065 283.531478,121.2065 C285.279487,121.2065 286.613474,121.92716 287.533478,123.3685 L287.533478,121.3905 L290.753478,121.3905 L290.753478,134.2245 C290.753478,136.049176 290.216817,137.540328 289.143478,138.698 C288.07014,139.855673 286.563655,140.4345 284.623978,140.4345 C282.684302,140.4345 281.143317,140.032004 280.000978,139.227 C278.858639,138.421996 278.210812,137.275841 278.057478,135.7885 L281.231478,135.7885 C281.430813,136.355837 281.814142,136.804332 282.381478,137.134 C282.948814,137.463669 283.661807,137.6285 284.520478,137.6285 C285.379149,137.6285 286.095975,137.344837 286.670978,136.7775 C287.245981,136.210164 287.533478,135.359173 287.533478,134.2245 L287.533478,131.9935 C286.567473,133.542175 285.22582,134.3165 283.508478,134.3165 C281.791136,134.3165 280.361317,133.69934 279.218978,132.465 C278.076639,131.230661 277.505478,129.655177 277.505478,127.7385 Z M287.533478,127.7615 C287.533478,126.596161 287.196148,125.680004 286.521478,125.013 C285.846808,124.345997 285.057149,124.0125 284.152478,124.0125 C283.247807,124.0125 282.461982,124.342164 281.794978,125.0015 C281.127975,125.660837 280.794478,126.573161 280.794478,127.7385 C280.794478,128.903839 281.131808,129.82383 281.806478,130.4985 C282.481148,131.17317 283.266974,131.5105 284.163978,131.5105 C285.060983,131.5105 285.846808,131.177004 286.521478,130.51 C287.196148,129.842997 287.533478,128.926839 287.533478,127.7615 Z M304.780478,133.9025 L299.789478,121.3905 L303.423478,121.3905 L306.666478,130.4525 L310.093478,121.3905 L313.474478,121.3905 L305.516478,140.1585 L302.135478,140.1585 L304.780478,133.9025 Z" id="strategy" transform="translate(239.137478, 129.337000) rotate(90.000000) translate(-239.137478, -129.337000) "></path>
                <path d="M-55.5804979,128.7985 C-55.5804979,127.633161 -55.9139946,126.720837 -56.5809979,126.0615 C-57.2480012,125.402164 -58.0338267,125.0725 -58.9384979,125.0725 C-59.8431691,125.0725 -60.6289946,125.405997 -61.2959979,126.073 C-61.9630012,126.740004 -62.2964979,127.656161 -62.2964979,128.8215 C-62.2964979,129.986839 -61.9630012,130.902997 -61.2959979,131.57 C-60.6289946,132.237004 -59.8431691,132.5705 -58.9384979,132.5705 C-58.0338267,132.5705 -57.2480012,132.23317 -56.5809979,131.5585 C-55.9139946,130.88383 -55.5804979,129.963839 -55.5804979,128.7985 Z M-62.2964979,124.4285 C-61.3918267,122.98716 -60.0655066,122.2665 -58.3174979,122.2665 C-56.5694892,122.2665 -55.1281702,122.875994 -53.9934979,124.095 C-52.8588256,125.314006 -52.2914979,126.885657 -52.2914979,128.81 C-52.2914979,130.734343 -52.8588256,132.309828 -53.9934979,133.5365 C-55.1281702,134.763173 -56.5579893,135.3765 -58.2829979,135.3765 C-60.0080065,135.3765 -61.3458265,134.602175 -62.2964979,133.0535 L-62.2964979,135.1925 L-65.5394979,135.1925 L-65.5394979,118.1725 L-62.2964979,118.1725 L-62.2964979,124.4285 Z M-39.3454978,122.4505 L-39.3454978,124.7045 C-38.4868268,123.079159 -37.2448393,122.2665 -35.6194978,122.2665 L-35.6194978,125.5785 L-36.4244978,125.5785 C-37.3905026,125.5785 -38.1188287,125.819998 -38.6094978,126.303 C-39.1001669,126.786003 -39.3454978,127.617828 -39.3454978,128.7985 L-39.3454978,135.1925 L-42.5884978,135.1925 L-42.5884978,122.4505 L-39.3454978,122.4505 Z M-17.0384977,128.8215 C-17.0384977,127.656161 -17.3758277,126.740004 -18.0504977,126.073 C-18.7251677,125.405997 -19.5148265,125.0725 -20.4194977,125.0725 C-21.3241689,125.0725 -22.1099944,125.402164 -22.7769977,126.0615 C-23.444001,126.720837 -23.7774977,127.633161 -23.7774977,128.7985 C-23.7774977,129.963839 -23.4401677,130.88383 -22.7654977,131.5585 C-22.0908277,132.23317 -21.3050022,132.5705 -20.4079977,132.5705 C-19.5109932,132.5705 -18.7251677,132.237004 -18.0504977,131.57 C-17.3758277,130.902997 -17.0384977,129.986839 -17.0384977,128.8215 Z M-27.0664977,128.7985 C-27.0664977,126.881824 -26.49917,125.314006 -25.3644977,124.095 C-24.2298254,122.875994 -22.7885064,122.2665 -21.0404977,122.2665 C-19.292489,122.2665 -17.9585023,122.98716 -17.0384977,124.4285 L-17.0384977,122.4505 L-13.8184977,122.4505 L-13.8184977,135.1925 L-17.0384977,135.1925 L-17.0384977,133.0535 C-18.0045025,134.602175 -19.3461558,135.3765 -21.0634977,135.3765 C-22.7808396,135.3765 -24.2106587,134.75934 -25.3529977,133.525 C-26.4953367,132.290661 -27.0664977,130.715177 -27.0664977,128.7985 Z M0.0245023937,122.4505 L0.0245023937,124.3595 C0.837173124,122.96416 2.1558266,122.2665 3.98050239,122.2665 C5.43717634,122.2665 6.62549779,122.745662 7.54550239,123.704 C8.46550699,124.662338 8.92550239,125.992492 8.92550239,127.6945 L8.92550239,135.1925 L5.70550239,135.1925 L5.70550239,128.1545 C5.70550239,127.157829 5.45250492,126.395003 4.94650239,125.866 C4.44049986,125.336998 3.75050676,125.0725 2.87650239,125.0725 C2.00249802,125.0725 1.30867163,125.336998 0.795002394,125.866 C0.281333159,126.395003 0.0245023937,127.157829 0.0245023937,128.1545 L0.0245023937,135.1925 L-3.21849761,135.1925 L-3.21849761,122.4505 L0.0245023937,122.4505 Z M28.5415025,128.8215 C28.5415025,127.656161 28.2041725,126.740004 27.5295025,126.073 C26.8548324,125.405997 26.0651737,125.0725 25.1605025,125.0725 C24.2558313,125.0725 23.4700058,125.402164 22.8030025,126.0615 C22.1359992,126.720837 21.8025025,127.633161 21.8025025,128.7985 C21.8025025,129.963839 22.1398324,130.88383 22.8145025,131.5585 C23.4891725,132.23317 24.274998,132.5705 25.1720025,132.5705 C26.069007,132.5705 26.8548324,132.237004 27.5295025,131.57 C28.2041725,130.902997 28.5415025,129.986839 28.5415025,128.8215 Z M18.5135025,128.7985 C18.5135025,126.881824 19.0808301,125.314006 20.2155025,124.095 C21.3501748,122.875994 22.7914937,122.2665 24.5395025,122.2665 C26.2875112,122.2665 27.6214979,122.98716 28.5415025,124.4285 L28.5415025,118.1725 L31.7615025,118.1725 L31.7615025,135.1925 L28.5415025,135.1925 L28.5415025,133.0535 C27.5754977,134.602175 26.2338444,135.3765 24.5165025,135.3765 C22.7991606,135.3765 21.3693415,134.75934 20.2270025,133.525 C19.0846634,132.290661 18.5135025,130.715177 18.5135025,128.7985 Z M45.3745026,120.6105 C44.9911673,120.993836 44.5273386,121.1855 43.9830026,121.1855 C43.4386665,121.1855 42.9748378,120.993836 42.5915026,120.6105 C42.2081673,120.227165 42.0165026,119.759503 42.0165026,119.2075 C42.0165026,118.655498 42.2081673,118.187836 42.5915026,117.8045 C42.9748378,117.421165 43.4386665,117.2295 43.9830026,117.2295 C44.5273386,117.2295 44.9911673,117.421165 45.3745026,117.8045 C45.7578378,118.187836 45.9495026,118.655498 45.9495026,119.2075 C45.9495026,119.759503 45.7578378,120.227165 45.3745026,120.6105 Z M42.3615026,135.1925 L42.3615026,122.4505 L45.6045026,122.4505 L45.6045026,135.1925 L42.3615026,135.1925 Z M59.4475027,122.4505 L59.4475027,124.3595 C60.2601734,122.96416 61.5788269,122.2665 63.4035027,122.2665 C64.8601766,122.2665 66.0484981,122.745662 66.9685027,123.704 C67.8885073,124.662338 68.3485027,125.992492 68.3485027,127.6945 L68.3485027,135.1925 L65.1285027,135.1925 L65.1285027,128.1545 C65.1285027,127.157829 64.8755052,126.395003 64.3695027,125.866 C63.8635001,125.336998 63.173507,125.0725 62.2995027,125.0725 C61.4254983,125.0725 60.7316719,125.336998 60.2180027,125.866 C59.7043334,126.395003 59.4475027,127.157829 59.4475027,128.1545 L59.4475027,135.1925 L56.2045027,135.1925 L56.2045027,122.4505 L59.4475027,122.4505 Z M77.9365028,128.7985 C77.9365028,126.881824 78.5038304,125.314006 79.6385028,124.095 C80.7731751,122.875994 82.214494,122.2665 83.9625028,122.2665 C85.7105115,122.2665 87.0444982,122.98716 87.9645028,124.4285 L87.9645028,122.4505 L91.1845028,122.4505 L91.1845028,135.2845 C91.1845028,137.109176 90.6478415,138.600328 89.5745028,139.758 C88.5011641,140.915673 86.9946791,141.4945 85.0550028,141.4945 C83.1153264,141.4945 81.5743418,141.092004 80.4320028,140.287 C79.2896637,139.481996 78.6418369,138.335841 78.4885028,136.8485 L81.6625028,136.8485 C81.8618371,137.415837 82.2451666,137.864332 82.8125028,138.194 C83.3798389,138.523669 84.0928318,138.6885 84.9515028,138.6885 C85.8101737,138.6885 86.5269999,138.404837 87.1020028,137.8375 C87.6770057,137.270164 87.9645028,136.419173 87.9645028,135.2845 L87.9645028,133.0535 C86.9984979,134.602175 85.6568447,135.3765 83.9395028,135.3765 C82.2221609,135.3765 80.7923418,134.75934 79.6500028,133.525 C78.5076637,132.290661 77.9365028,130.715177 77.9365028,128.7985 Z M87.9645028,128.8215 C87.9645028,127.656161 87.6271728,126.740004 86.9525028,126.073 C86.2778327,125.405997 85.488174,125.0725 84.5835028,125.0725 C83.6788316,125.0725 82.8930061,125.402164 82.2260028,126.0615 C81.5589994,126.720837 81.2255028,127.633161 81.2255028,128.7985 C81.2255028,129.963839 81.5628327,130.88383 82.2375028,131.5585 C82.9121728,132.23317 83.6979983,132.5705 84.5950028,132.5705 C85.4920073,132.5705 86.2778327,132.237004 86.9525028,131.57 C87.6271728,130.902997 87.9645028,129.986839 87.9645028,128.8215 Z" id="branding" transform="translate(12.822502, 129.362000) rotate(-90.000000) translate(-12.822502, -129.362000) "></path>
                <path d="M35.279,252.147 C33.4236574,252.147 31.9133392,251.545173 30.748,250.3415 C29.5826608,249.137827 29,247.54701 29,245.569 C29,243.59099 29.5864941,242.007839 30.7595,240.8195 C31.9325059,239.631161 33.4504907,239.037 35.3135,239.037 C37.1765093,239.037 38.705994,239.615828 39.902,240.7735 C41.098006,241.931172 41.696,243.47599 41.696,245.408 C41.696,245.852669 41.6653336,246.266665 41.604,246.65 L32.312,246.65 C32.388667,247.478004 32.6953306,248.144997 33.232,248.651 C33.7686693,249.157003 34.4509959,249.41 35.279,249.41 C36.3983389,249.41 37.2263306,248.950005 37.763,248.03 L41.259,248.03 C40.8909982,249.241339 40.1780053,250.23033 39.12,250.997 C38.0619947,251.763671 36.7816742,252.147 35.279,252.147 Z M37.4065,242.533 C36.8314971,242.026997 36.1376707,241.774 35.325,241.774 C34.5123293,241.774 33.8338361,242.026997 33.2895,242.533 C32.7451639,243.039003 32.4193339,243.713662 32.312,244.557 L38.338,244.557 C38.2919998,243.713662 37.9815029,243.039003 37.4065,242.533 Z M61.5420001,239.221 L57.4020001,245.454 L61.5190001,251.963 L57.8850001,251.963 L55.4470001,248.122 L53.1010001,251.963 L49.8350001,251.963 L53.9520001,245.753 L49.8350001,239.221 L53.4690001,239.221 L55.9070001,243.085 L58.2530001,239.221 L61.5420001,239.221 Z M80.5140002,245.569 C80.5140002,244.403661 80.1805035,243.491337 79.5135002,242.832 C78.8464969,242.172663 78.0606714,241.843 77.1560002,241.843 C76.251329,241.843 75.4655035,242.176497 74.7985002,242.8435 C74.1314969,243.510503 73.7980002,244.426661 73.7980002,245.592 C73.7980002,246.757339 74.1314969,247.673497 74.7985002,248.3405 C75.4655035,249.007503 76.251329,249.341 77.1560002,249.341 C78.0606714,249.341 78.8464969,249.00367 79.5135002,248.329 C80.1805035,247.65433 80.5140002,246.734339 80.5140002,245.569 Z M73.7980002,241.199 C74.7026714,239.757659 76.0289915,239.037 77.7770002,239.037 C79.5250089,239.037 80.9663279,239.646494 82.1010002,240.8655 C83.2356725,242.084506 83.8030002,243.656157 83.8030002,245.5805 C83.8030002,247.504843 83.2356725,249.080327 82.1010002,250.307 C80.9663279,251.533673 79.5365088,252.147 77.8115002,252.147 C76.0864916,252.147 74.7486716,251.372674 73.7980002,249.824 L73.7980002,258.035 L70.5550002,258.035 L70.5550002,239.221 L73.7980002,239.221 L73.7980002,241.199 Z M98.8880003,252.147 C97.0326577,252.147 95.5223394,251.545173 94.3570003,250.3415 C93.1916611,249.137827 92.6090003,247.54701 92.6090003,245.569 C92.6090003,243.59099 93.1954944,242.007839 94.3685003,240.8195 C95.5415062,239.631161 97.059491,239.037 98.9225003,239.037 C100.78551,239.037 102.314994,239.615828 103.511,240.7735 C104.707006,241.931172 105.305,243.47599 105.305,245.408 C105.305,245.852669 105.274334,246.266665 105.213,246.65 L95.9210003,246.65 C95.9976673,247.478004 96.3043309,248.144997 96.8410003,248.651 C97.3776696,249.157003 98.0599961,249.41 98.8880003,249.41 C100.007339,249.41 100.835331,248.950005 101.372,248.03 L104.868,248.03 C104.499998,249.241339 103.787006,250.23033 102.729,250.997 C101.670995,251.763671 100.390674,252.147 98.8880003,252.147 Z M101.0155,242.533 C100.440497,242.026997 99.746671,241.774 98.9340003,241.774 C98.1213296,241.774 97.4428363,242.026997 96.8985003,242.533 C96.3541642,243.039003 96.0283342,243.713662 95.9210003,244.557 L101.947,244.557 C101.901,243.713662 101.590503,243.039003 101.0155,242.533 Z M118.251,239.221 L118.251,241.475 C119.109671,239.849659 120.351659,239.037 121.977,239.037 L121.977,242.349 L121.172,242.349 C120.205996,242.349 119.47767,242.590498 118.987,243.0735 C118.496331,243.556502 118.251,244.388327 118.251,245.569 L118.251,251.963 L115.008,251.963 L115.008,239.221 L118.251,239.221 Z M134.44,237.381 C134.056665,237.764335 133.592837,237.956 133.0485,237.956 C132.504164,237.956 132.040336,237.764335 131.657,237.381 C131.273665,236.997665 131.082,236.530003 131.082,235.978 C131.082,235.425997 131.273665,234.958335 131.657,234.575 C132.040336,234.191665 132.504164,234 133.0485,234 C133.592837,234 134.056665,234.191665 134.44,234.575 C134.823336,234.958335 135.015,235.425997 135.015,235.978 C135.015,236.530003 134.823336,236.997665 134.44,237.381 Z M131.427,251.963 L131.427,239.221 L134.67,239.221 L134.67,251.963 L131.427,251.963 Z M150.652001,252.147 C148.796658,252.147 147.28634,251.545173 146.121001,250.3415 C144.955661,249.137827 144.373001,247.54701 144.373001,245.569 C144.373001,243.59099 144.959495,242.007839 146.132501,240.8195 C147.305506,239.631161 148.823491,239.037 150.686501,239.037 C152.54951,239.037 154.078995,239.615828 155.275001,240.7735 C156.471007,241.931172 157.069001,243.47599 157.069001,245.408 C157.069001,245.852669 157.038334,246.266665 156.977001,246.65 L147.685001,246.65 C147.761668,247.478004 148.068331,248.144997 148.605001,248.651 C149.14167,249.157003 149.823996,249.41 150.652001,249.41 C151.77134,249.41 152.599331,248.950005 153.136001,248.03 L156.632001,248.03 C156.263999,249.241339 155.551006,250.23033 154.493001,250.997 C153.434995,251.763671 152.154675,252.147 150.652001,252.147 Z M152.779501,242.533 C152.204498,242.026997 151.510671,241.774 150.698001,241.774 C149.88533,241.774 149.206837,242.026997 148.662501,242.533 C148.118165,243.039003 147.792334,243.713662 147.685001,244.557 L153.711001,244.557 C153.665,243.713662 153.354503,243.039003 152.779501,242.533 Z M170.015001,239.221 L170.015001,241.13 C170.827671,239.73466 172.146325,239.037 173.971001,239.037 C175.427675,239.037 176.615996,239.516162 177.536001,240.4745 C178.456005,241.432838 178.916001,242.762991 178.916001,244.465 L178.916001,251.963 L175.696001,251.963 L175.696001,244.925 C175.696001,243.928328 175.443003,243.165503 174.937001,242.6365 C174.430998,242.107497 173.741005,241.843 172.867001,241.843 C171.992996,241.843 171.29917,242.107497 170.785501,242.6365 C170.271831,243.165503 170.015001,243.928328 170.015001,244.925 L170.015001,251.963 L166.772001,251.963 L166.772001,239.221 L170.015001,239.221 Z M188.504001,245.592 C188.504001,243.61399 189.086662,242.027006 190.252001,240.831 C191.41734,239.634994 192.927658,239.037 194.783001,239.037 C196.331675,239.037 197.627329,239.412663 198.670001,240.164 C199.712673,240.915337 200.410332,241.980993 200.763001,243.361 L197.267001,243.361 C196.852999,242.302995 196.025007,241.774 194.783001,241.774 C193.847663,241.774 193.115503,242.115163 192.586501,242.7975 C192.057498,243.479837 191.793001,244.411327 191.793001,245.592 C191.793001,246.772673 192.057498,247.704163 192.586501,248.3865 C193.115503,249.068837 193.847663,249.41 194.783001,249.41 C196.009674,249.41 196.837665,248.873339 197.267001,247.8 L200.763001,247.8 C200.394999,249.134007 199.685839,250.191996 198.635501,250.974 C197.585162,251.756004 196.301008,252.147 194.783001,252.147 C192.927658,252.147 191.41734,251.549006 190.252001,250.353 C189.086662,249.156994 188.504001,247.57001 188.504001,245.592 Z M215.733001,252.147 C213.877658,252.147 212.36734,251.545173 211.202001,250.3415 C210.036662,249.137827 209.454001,247.54701 209.454001,245.569 C209.454001,243.59099 210.040495,242.007839 211.213501,240.8195 C212.386507,239.631161 213.904492,239.037 215.767501,239.037 C217.63051,239.037 219.159995,239.615828 220.356001,240.7735 C221.552007,241.931172 222.150001,243.47599 222.150001,245.408 C222.150001,245.852669 222.119334,246.266665 222.058001,246.65 L212.766001,246.65 C212.842668,247.478004 213.149332,248.144997 213.686001,248.651 C214.22267,249.157003 214.904997,249.41 215.733001,249.41 C216.85234,249.41 217.680332,248.950005 218.217001,248.03 L221.713001,248.03 C221.344999,249.241339 220.632006,250.23033 219.574001,250.997 C218.515996,251.763671 217.235675,252.147 215.733001,252.147 Z M217.860501,242.533 C217.285498,242.026997 216.591672,241.774 215.779001,241.774 C214.96633,241.774 214.287837,242.026997 213.743501,242.533 C213.199165,243.039003 212.873335,243.713662 212.766001,244.557 L218.792001,244.557 C218.746001,243.713662 218.435504,243.039003 217.860501,242.533 Z" id="experience"></path>
                <path d="M40.243,5.221 L40.243,7.13 C41.0556707,5.73465969 42.3743242,5.037 44.199,5.037 C45.1650048,5.037 46.0274962,5.25933111 46.7865,5.704 C47.5455038,6.14866889 48.1319979,6.78499586 48.546,7.613 C48.9906689,6.81566268 49.6001628,6.1870023 50.3745,5.727 C51.1488372,5.2669977 52.0189952,5.037 52.985,5.037 C54.5030076,5.037 55.7258287,5.51232858 56.6535,6.463 C57.5811713,7.41367142 58.045,8.74765808 58.045,10.465 L58.045,17.963 L54.825,17.963 L54.825,10.925 C54.825,9.92832835 54.5720025,9.16550265 54.066,8.6365 C53.5599975,8.10749736 52.8700044,7.843 51.996,7.843 C51.1219956,7.843 50.4281692,8.10749736 49.9145,8.6365 C49.4008308,9.16550265 49.144,9.92832835 49.144,10.925 L49.144,17.963 L45.924,17.963 L45.924,10.925 C45.924,9.92832835 45.6710025,9.16550265 45.165,8.6365 C44.6589975,8.10749736 43.9690044,7.843 43.095,7.843 C42.2209956,7.843 41.5271692,8.10749736 41.0135,8.6365 C40.4998308,9.16550265 40.243,9.92832835 40.243,10.925 L40.243,17.963 L37,17.963 L37,5.221 L40.243,5.221 Z M77.6610001,11.592 C77.6610001,10.4266608 77.3236701,9.51050334 76.6490001,8.8435 C75.9743301,8.17649667 75.1846713,7.843 74.2800001,7.843 C73.3753289,7.843 72.5895034,8.17266337 71.9225001,8.832 C71.2554968,9.49133663 70.9220001,10.4036608 70.9220001,11.569 C70.9220001,12.7343392 71.2593301,13.65433 71.9340001,14.329 C72.6086701,15.00367 73.3944956,15.341 74.2915001,15.341 C75.1885046,15.341 75.9743301,15.0075033 76.6490001,14.3405 C77.3236701,13.6734967 77.6610001,12.7573392 77.6610001,11.592 Z M67.6330001,11.569 C67.6330001,9.65232375 68.2003278,8.0845061 69.3350001,6.8655 C70.4696724,5.64649391 71.9109914,5.037 73.6590001,5.037 C75.4070088,5.037 76.7409955,5.75765946 77.6610001,7.199 L77.6610001,5.221 L80.8810001,5.221 L80.8810001,17.963 L77.6610001,17.963 L77.6610001,15.824 C76.6949953,17.3726744 75.353342,18.147 73.6360001,18.147 C71.9186582,18.147 70.4888391,17.5298395 69.3465001,16.2955 C68.2041611,15.0611605 67.6330001,13.4856763 67.6330001,11.569 Z M94.7240002,5.221 L94.7240002,7.475 C95.5826712,5.84965854 96.8246587,5.037 98.4500002,5.037 L98.4500002,8.349 L97.6450002,8.349 C96.6789954,8.349 95.9506693,8.59049759 95.4600002,9.0735 C94.9693311,9.55650242 94.7240002,10.3883274 94.7240002,11.569 L94.7240002,17.963 L91.4810002,17.963 L91.4810002,5.221 L94.7240002,5.221 Z M111.143,17.963 L107.9,17.963 L107.9,0.943 L111.143,0.943 L111.143,10.672 L115.444,5.221 L119.837,5.221 L114.179,11.661 L119.837,17.963 L115.513,17.963 L111.143,12.65 L111.143,17.963 Z M134.232,18.147 C132.376658,18.147 130.86634,17.5451727 129.701,16.3415 C128.535661,15.1378273 127.953,13.5470099 127.953,11.569 C127.953,9.59099011 128.539495,8.00783928 129.7125,6.8195 C130.885506,5.63116073 132.403491,5.037 134.2665,5.037 C136.12951,5.037 137.658994,5.61582754 138.855,6.7735 C140.051006,7.93117246 140.649,9.47599034 140.649,11.408 C140.649,11.8526689 140.618334,12.2666648 140.557,12.65 L131.265,12.65 C131.341667,13.4780041 131.648331,14.1449975 132.185,14.651 C132.72167,15.1570025 133.403996,15.41 134.232,15.41 C135.351339,15.41 136.179331,14.9500046 136.716,14.03 L140.212,14.03 C139.843999,15.2413394 139.131006,16.2303295 138.073,16.997 C137.014995,17.7636705 135.734675,18.147 134.232,18.147 Z M136.3595,8.533 C135.784498,8.02699747 135.090671,7.774 134.278,7.774 C133.46533,7.774 132.786836,8.02699747 132.2425,8.533 C131.698164,9.03900253 131.372334,9.71366245 131.265,10.557 L137.291,10.557 C137.245,9.71366245 136.934503,9.03900253 136.3595,8.533 Z M155.297,15.249 L156.838,15.249 L156.838,17.963 L154.791,17.963 C153.487661,17.963 152.483337,17.664003 151.778,17.066 C151.072664,16.467997 150.72,15.4790069 150.72,14.099 L150.72,7.866 L149.363,7.866 L149.363,5.221 L150.72,5.221 L150.72,2.07 L153.963,2.07 L153.963,5.221 L156.815,5.221 L156.815,7.866 L153.963,7.866 L153.963,14.099 C153.963,14.5130021 154.062666,14.8081658 154.262,14.9845 C154.461335,15.1608342 154.806331,15.249 155.297,15.249 Z M169.531001,3.381 C169.147665,3.76433525 168.683837,3.956 168.139501,3.956 C167.595165,3.956 167.131336,3.76433525 166.748001,3.381 C166.364665,2.99766475 166.173001,2.53000276 166.173001,1.978 C166.173001,1.42599724 166.364665,0.95833525 166.748001,0.575 C167.131336,0.19166475 167.595165,0 168.139501,0 C168.683837,0 169.147665,0.19166475 169.531001,0.575 C169.914336,0.95833525 170.106001,1.42599724 170.106001,1.978 C170.106001,2.53000276 169.914336,2.99766475 169.531001,3.381 Z M166.518001,17.963 L166.518001,5.221 L169.761001,5.221 L169.761001,17.963 L166.518001,17.963 Z M183.604001,5.221 L183.604001,7.13 C184.416671,5.73465969 185.735325,5.037 187.560001,5.037 C189.016675,5.037 190.204996,5.51616187 191.125001,6.4745 C192.045005,7.43283812 192.505001,8.76299149 192.505001,10.465 L192.505001,17.963 L189.285001,17.963 L189.285001,10.925 C189.285001,9.92832835 189.032003,9.16550265 188.526001,8.6365 C188.019998,8.10749736 187.330005,7.843 186.456001,7.843 C185.581996,7.843 184.88817,8.10749736 184.374501,8.6365 C183.860831,9.16550265 183.604001,9.92832835 183.604001,10.925 L183.604001,17.963 L180.361001,17.963 L180.361001,5.221 L183.604001,5.221 Z M202.093001,11.569 C202.093001,9.65232375 202.660328,8.0845061 203.795001,6.8655 C204.929673,5.6464939 206.370992,5.037 208.119001,5.037 C209.86701,5.037 211.200996,5.75765946 212.121001,7.199 L212.121001,5.221 L215.341001,5.221 L215.341001,18.055 C215.341001,19.8796758 214.804339,21.3708275 213.731001,22.5285 C212.657662,23.6861725 211.151177,24.265 209.211501,24.265 C207.271824,24.265 205.73084,23.862504 204.588501,23.0575 C203.446162,22.252496 202.798335,21.1063408 202.645001,19.619 L205.819001,19.619 C206.018335,20.1863362 206.401665,20.6348317 206.969001,20.9645 C207.536337,21.2941683 208.24933,21.459 209.108001,21.459 C209.966672,21.459 210.683498,21.1753362 211.258501,20.608 C211.833504,20.0406638 212.121001,19.1896723 212.121001,18.055 L212.121001,15.824 C211.154996,17.3726744 209.813343,18.147 208.096001,18.147 C206.378659,18.147 204.94884,17.5298395 203.806501,16.2955 C202.664162,15.0611605 202.093001,13.4856763 202.093001,11.569 Z M212.121001,11.592 C212.121001,10.4266608 211.783671,9.51050334 211.109001,8.8435 C210.434331,8.17649667 209.644672,7.843 208.740001,7.843 C207.83533,7.843 207.049504,8.17266337 206.382501,8.832 C205.715497,9.49133663 205.382001,10.4036608 205.382001,11.569 C205.382001,12.7343392 205.719331,13.65433 206.394001,14.329 C207.068671,15.00367 207.854496,15.341 208.751501,15.341 C209.648505,15.341 210.434331,15.0075033 211.109001,14.3405 C211.783671,13.6734967 212.121001,12.7573392 212.121001,11.592 Z" id="marketing"></path>
            </g>
        </g>
    </g>
</svg>