<?xml version="1.0" encoding="UTF-8"?>
<svg width="272px" height="264px" viewBox="0 0 272 264" version="1.1" xmlns="http://www.w3.org/2000/svg" xmlns:xlink="http://www.w3.org/1999/xlink">
    <!-- Generator: Sketch 42 (36781) - http://www.bohemiancoding.com/sketch -->
    <title>Group 2</title>
    <desc>Created with Sketch.</desc>
    <defs></defs>
    <g id="Page-2" stroke="none" stroke-width="1" fill="none" fill-rule="evenodd">
        <g id="Desktop-HD-Copy-3" transform="translate(-580.000000, -340.000000)" fill="#C0985A">
            <g id="Group-2" transform="translate(580.000000, 340.000000)">
                <path d="M183.163889,133.2 C183.163889,131.999994 183.672217,130.991671 184.688889,130.175 C185.705561,129.358329 187.055547,128.95 188.738889,128.95 C190.422231,128.95 191.772217,129.354163 192.788889,130.1625 C193.805561,130.970837 194.347222,132.06666 194.413889,133.45 L190.813889,133.45 C190.713888,132.283328 189.997229,131.7 188.663889,131.7 C187.997219,131.7 187.480557,131.833332 187.113889,132.1 C186.74722,132.366668 186.563889,132.733331 186.563889,133.2 C186.563889,133.666669 186.838886,134.033332 187.388889,134.3 C187.938892,134.566668 188.605552,134.774999 189.388889,134.925 C190.172226,135.075001 190.951385,135.262499 191.726389,135.4875 C192.501393,135.712501 193.163886,136.112497 193.713889,136.6875 C194.263892,137.262503 194.538889,138.024995 194.538889,138.975 C194.538889,140.225006 194.009728,141.241663 192.951389,142.025 C191.89305,142.808337 190.543064,143.2 188.901389,143.2 C187.259714,143.2 185.913894,142.812504 184.863889,142.0375 C183.813884,141.262496 183.238889,140.150007 183.138889,138.7 L186.738889,138.7 C186.872223,139.866673 187.613882,140.45 188.963889,140.45 C189.613892,140.45 190.138887,140.304168 190.538889,140.0125 C190.938891,139.720832 191.138889,139.337502 191.138889,138.8625 C191.138889,138.387498 190.863892,138.012501 190.313889,137.7375 C189.763886,137.462499 189.097226,137.250001 188.313889,137.1 C187.530552,136.949999 186.751393,136.766668 185.976389,136.55 C185.201385,136.333332 184.538892,135.945836 183.988889,135.3875 C183.438886,134.829164 183.163889,134.100005 183.163889,133.2 Z M209.466667,140.05 L211.141667,140.05 L211.141667,143 L208.916667,143 C207.499993,143 206.408337,142.675003 205.641667,142.025 C204.874996,141.374997 204.491667,140.300008 204.491667,138.8 L204.491667,132.025 L203.016667,132.025 L203.016667,129.15 L204.491667,129.15 L204.491667,125.725 L208.016667,125.725 L208.016667,129.15 L211.116667,129.15 L211.116667,132.025 L208.016667,132.025 L208.016667,138.8 C208.016667,139.250002 208.124999,139.570832 208.341667,139.7625 C208.558334,139.954168 208.933331,140.05 209.466667,140.05 Z M223.969444,129.15 L223.969444,131.6 C224.902782,129.833325 226.252769,128.95 228.019444,128.95 L228.019444,132.55 L227.144444,132.55 C226.094439,132.55 225.30278,132.812497 224.769444,133.3375 C224.236108,133.862503 223.969444,134.76666 223.969444,136.05 L223.969444,143 L220.444444,143 L220.444444,129.15 L223.969444,129.15 Z M246.997222,136.075 C246.997222,134.808327 246.630559,133.812504 245.897222,133.0875 C245.163885,132.362496 244.30556,132 243.322222,132 C242.338884,132 241.484726,132.35833 240.759722,133.075 C240.034719,133.79167 239.672222,134.783327 239.672222,136.05 C239.672222,137.316673 240.038885,138.316663 240.772222,139.05 C241.505559,139.783337 242.359717,140.15 243.334722,140.15 C244.309727,140.15 245.163885,139.787504 245.897222,139.0625 C246.630559,138.337496 246.997222,137.341673 246.997222,136.075 Z M236.097222,136.05 C236.097222,133.966656 236.713883,132.262507 237.947222,130.9375 C239.180562,129.612493 240.747213,128.95 242.647222,128.95 C244.547232,128.95 245.997217,129.733326 246.997222,131.3 L246.997222,129.15 L250.497222,129.15 L250.497222,143 L246.997222,143 L246.997222,140.675 C245.947217,142.358342 244.488898,143.2 242.622222,143.2 C240.755546,143.2 239.201395,142.529173 237.959722,141.1875 C236.718049,139.845827 236.097222,138.133344 236.097222,136.05 Z M266.175,140.05 L267.85,140.05 L267.85,143 L265.625,143 C264.208326,143 263.116671,142.675003 262.35,142.025 C261.58333,141.374997 261.2,140.300008 261.2,138.8 L261.2,132.025 L259.725,132.025 L259.725,129.15 L261.2,129.15 L261.2,125.725 L264.725,125.725 L264.725,129.15 L267.825,129.15 L267.825,132.025 L264.725,132.025 L264.725,138.8 C264.725,139.250002 264.833332,139.570832 265.05,139.7625 C265.266668,139.954168 265.641664,140.05 266.175,140.05 Z M283.002778,143.2 C280.986101,143.2 279.344451,142.54584 278.077778,141.2375 C276.811105,139.92916 276.177778,138.200011 276.177778,136.05 C276.177778,133.899989 276.815271,132.179173 278.090278,130.8875 C279.365284,129.595827 281.015268,128.95 283.040278,128.95 C285.065288,128.95 286.727771,129.57916 288.027778,130.8375 C289.327784,132.09584 289.977778,133.77499 289.977778,135.875 C289.977778,136.358336 289.944445,136.808331 289.877778,137.225 L279.777778,137.225 C279.861112,138.125005 280.194442,138.849997 280.777778,139.4 C281.361114,139.950003 282.102773,140.225 283.002778,140.225 C284.219451,140.225 285.119442,139.725005 285.702778,138.725 L289.502778,138.725 C289.102776,140.041673 288.327784,141.116663 287.177778,141.95 C286.027772,142.783338 284.636119,143.2 283.002778,143.2 Z M285.315278,132.75 C284.690275,132.199997 283.936116,131.925 283.052778,131.925 C282.16944,131.925 281.431947,132.199997 280.840278,132.75 C280.248608,133.300003 279.894445,134.033329 279.777778,134.95 L286.327778,134.95 C286.277778,134.033329 285.940281,133.300003 285.315278,132.75 Z M298.330556,136.05 C298.330556,133.966656 298.947216,132.262507 300.180556,130.9375 C301.413895,129.612493 302.980546,128.95 304.880556,128.95 C306.780565,128.95 308.230551,129.733326 309.230556,131.3 L309.230556,129.15 L312.730556,129.15 L312.730556,143.1 C312.730556,145.083343 312.147228,146.70416 310.980556,147.9625 C309.813883,149.22084 308.176399,149.85 306.068056,149.85 C303.959712,149.85 302.284728,149.412504 301.043056,148.5375 C299.801383,147.662496 299.097223,146.416675 298.930556,144.8 L302.380556,144.8 C302.597223,145.41667 303.013886,145.904165 303.630556,146.2625 C304.247225,146.620835 305.022218,146.8 305.955556,146.8 C306.888894,146.8 307.668052,146.49167 308.293056,145.875 C308.918059,145.25833 309.230556,144.33334 309.230556,143.1 L309.230556,140.675 C308.18055,142.358342 306.722232,143.2 304.855556,143.2 C302.98888,143.2 301.434728,142.529173 300.193056,141.1875 C298.951383,139.845827 298.330556,138.133344 298.330556,136.05 Z M309.230556,136.075 C309.230556,134.808327 308.863893,133.812504 308.130556,133.0875 C307.397219,132.362496 306.538894,132 305.555556,132 C304.572217,132 303.718059,132.35833 302.993056,133.075 C302.268052,133.79167 301.905556,134.783327 301.905556,136.05 C301.905556,137.316673 302.272219,138.316663 303.005556,139.05 C303.738893,139.783337 304.593051,140.15 305.568056,140.15 C306.54306,140.15 307.397219,139.787504 308.130556,139.0625 C308.863893,138.337496 309.230556,137.341673 309.230556,136.075 Z M326.758333,142.75 L321.333333,129.15 L325.283333,129.15 L328.808333,139 L332.533333,129.15 L336.208333,129.15 L327.558333,149.55 L323.883333,149.55 L326.758333,142.75 Z" id="strategy" transform="translate(259.673611, 137.787500) rotate(90.000000) translate(-259.673611, -137.787500) "></path>
                <path d="M-56.3,132.05 C-56.3,130.783327 -56.6624964,129.79167 -57.3875,129.075 C-58.1125036,128.35833 -58.9666618,128 -59.95,128 C-60.9333382,128 -61.7874964,128.362496 -62.5125,129.0875 C-63.2375036,129.812504 -63.6,130.808327 -63.6,132.075 C-63.6,133.341673 -63.2375036,134.337496 -62.5125,135.0625 C-61.7874964,135.787504 -60.9333382,136.15 -59.95,136.15 C-58.9666618,136.15 -58.1125036,135.783337 -57.3875,135.05 C-56.6624964,134.316663 -56.3,133.316673 -56.3,132.05 Z M-63.6,127.3 C-62.6166617,125.733325 -61.1750095,124.95 -59.275,124.95 C-57.3749905,124.95 -55.8083395,125.612493 -54.575,126.9375 C-53.3416605,128.262507 -52.725,129.970823 -52.725,132.0625 C-52.725,134.154177 -53.3416605,135.86666 -54.575,137.2 C-55.8083395,138.53334 -57.3624906,139.2 -59.2375,139.2 C-61.1125094,139.2 -62.5666615,138.358342 -63.6,136.675 L-63.6,139 L-67.125,139 L-67.125,120.5 L-63.6,120.5 L-63.6,127.3 Z M-39.8722222,125.15 L-39.8722222,127.6 C-38.9388842,125.833324 -37.5888977,124.95 -35.8222222,124.95 L-35.8222222,128.55 L-36.6972222,128.55 C-37.7472275,128.55 -38.5388862,128.812497 -39.0722222,129.3375 C-39.6055582,129.862503 -39.8722222,130.76666 -39.8722222,132.05 L-39.8722222,139 L-43.3972222,139 L-43.3972222,125.15 L-39.8722222,125.15 Z M-16.8444445,132.075 C-16.8444445,130.808327 -17.2111075,129.812504 -17.9444445,129.0875 C-18.6777815,128.362496 -19.5361062,128 -20.5194445,128 C-21.5027827,128 -22.3569408,128.35833 -23.0819445,129.075 C-23.8069481,129.79167 -24.1694445,130.783327 -24.1694445,132.05 C-24.1694445,133.316673 -23.8027815,134.316663 -23.0694445,135.05 C-22.3361075,135.783337 -21.4819493,136.15 -20.5069445,136.15 C-19.5319396,136.15 -18.6777815,135.787504 -17.9444445,135.0625 C-17.2111075,134.337496 -16.8444445,133.341673 -16.8444445,132.075 Z M-27.7444445,132.05 C-27.7444445,129.966656 -27.127784,128.262507 -25.8944445,126.9375 C-24.661105,125.612493 -23.094454,124.95 -21.1944445,124.95 C-19.294435,124.95 -17.8444495,125.733325 -16.8444445,127.3 L-16.8444445,125.15 L-13.3444445,125.15 L-13.3444445,139 L-16.8444445,139 L-16.8444445,136.675 C-17.8944497,138.358342 -19.3527685,139.2 -21.2194445,139.2 C-23.0861205,139.2 -24.6402716,138.529173 -25.8819445,137.1875 C-27.1236173,135.845827 -27.7444445,134.133344 -27.7444445,132.05 Z M0.483333302,125.15 L0.483333302,127.225 C1.36667105,125.708326 2.79999005,124.95 4.7833333,124.95 C6.36667455,124.95 7.6583283,125.470828 8.6583333,126.5125 C9.6583383,127.554172 10.1583333,128.999991 10.1583333,130.85 L10.1583333,139 L6.6583333,139 L6.6583333,131.35 C6.6583333,130.266661 6.38333605,129.437503 5.8333333,128.8625 C5.28333055,128.287497 4.53333805,128 3.5833333,128 C2.63332855,128 1.87916943,128.287497 1.3208333,128.8625 C0.762497177,129.437503 0.483333302,130.266661 0.483333302,131.35 L0.483333302,139 L-3.0416667,139 L-3.0416667,125.15 L0.483333302,125.15 Z M30.2611111,132.075 C30.2611111,130.808327 29.8944481,129.812504 29.1611111,129.0875 C28.4277741,128.362496 27.5694493,128 26.5861111,128 C25.6027728,128 24.7486147,128.35833 24.0236111,129.075 C23.2986074,129.79167 22.9361111,130.783327 22.9361111,132.05 C22.9361111,133.316673 23.3027741,134.316663 24.0361111,135.05 C24.7694481,135.783337 25.6236062,136.15 26.5986111,136.15 C27.5736159,136.15 28.4277741,135.787504 29.1611111,135.0625 C29.8944481,134.337496 30.2611111,133.341673 30.2611111,132.075 Z M19.3611111,132.05 C19.3611111,129.966656 19.9777716,128.262507 21.2111111,126.9375 C22.4444506,125.612493 24.0111016,124.95 25.9111111,124.95 C27.8111206,124.95 29.2611061,125.733325 30.2611111,127.3 L30.2611111,120.5 L33.7611111,120.5 L33.7611111,139 L30.2611111,139 L30.2611111,136.675 C29.2111058,138.358342 27.7527871,139.2 25.8861111,139.2 C24.0194351,139.2 22.4652839,138.529173 21.2236111,137.1875 C19.9819382,135.845827 19.3611111,134.133344 19.3611111,132.05 Z M47.3388888,123.15 C46.9222201,123.566669 46.4180585,123.775 45.8263888,123.775 C45.2347192,123.775 44.7305576,123.566669 44.3138888,123.15 C43.8972201,122.733331 43.6888888,122.225003 43.6888888,121.625 C43.6888888,121.024997 43.8972201,120.516669 44.3138888,120.1 C44.7305576,119.683331 45.2347192,119.475 45.8263888,119.475 C46.4180585,119.475 46.9222201,119.683331 47.3388888,120.1 C47.7555576,120.516669 47.9638888,121.024997 47.9638888,121.625 C47.9638888,122.225003 47.7555576,122.733331 47.3388888,123.15 Z M44.0638888,139 L44.0638888,125.15 L47.5888888,125.15 L47.5888888,139 L44.0638888,139 Z M61.4166666,125.15 L61.4166666,127.225 C62.3000044,125.708326 63.7333234,124.95 65.7166666,124.95 C67.3000079,124.95 68.5916616,125.470828 69.5916666,126.5125 C70.5916716,127.554172 71.0916666,128.999991 71.0916666,130.85 L71.0916666,139 L67.5916666,139 L67.5916666,131.35 C67.5916666,130.266661 67.3166694,129.437503 66.7666666,128.8625 C66.2166639,128.287497 65.4666714,128 64.5166666,128 C63.5666619,128 62.8125027,128.287497 62.2541666,128.8625 C61.6958305,129.437503 61.4166666,130.266661 61.4166666,131.35 L61.4166666,139 L57.8916666,139 L57.8916666,125.15 L61.4166666,125.15 Z M80.2944444,132.05 C80.2944444,129.966656 80.9111049,128.262507 82.1444444,126.9375 C83.3777839,125.612493 84.9444349,124.95 86.8444444,124.95 C88.7444539,124.95 90.1944394,125.733325 91.1944444,127.3 L91.1944444,125.15 L94.6944444,125.15 L94.6944444,139.1 C94.6944444,141.083343 94.1111169,142.70416 92.9444444,143.9625 C91.7777719,145.22084 90.1402882,145.85 88.0319444,145.85 C85.9236005,145.85 84.2486172,145.412504 83.0069444,144.5375 C81.7652715,143.662496 81.0611119,142.416675 80.8944444,140.8 L84.3444444,140.8 C84.5611121,141.41667 84.9777746,141.904165 85.5944444,142.2625 C86.2111141,142.620835 86.9861064,142.8 87.9194444,142.8 C88.8527824,142.8 89.6319412,142.49167 90.2569444,141.875 C90.8819475,141.25833 91.1944444,140.333339 91.1944444,139.1 L91.1944444,136.675 C90.1444391,138.358342 88.6861204,139.2 86.8194444,139.2 C84.9527684,139.2 83.3986172,138.529173 82.1569444,137.1875 C80.9152715,135.845827 80.2944444,134.133344 80.2944444,132.05 Z M91.1944444,132.075 C91.1944444,130.808327 90.8277814,129.812504 90.0944444,129.0875 C89.3611074,128.362496 88.5027826,128 87.5194444,128 C86.5361061,128 85.681948,128.35833 84.9569444,129.075 C84.2319407,129.79167 83.8694444,130.783327 83.8694444,132.05 C83.8694444,133.316673 84.2361074,134.316663 84.9694444,135.05 C85.7027814,135.783337 86.5569395,136.15 87.5319444,136.15 C88.5069492,136.15 89.3611074,135.787504 90.0944444,135.0625 C90.8277814,134.337496 91.1944444,133.341673 91.1944444,132.075 Z" id="branding" transform="translate(13.784722, 132.662500) rotate(-90.000000) translate(-13.784722, -132.662500) "></path>
                <path d="M46.0611112,257.2 C44.0444344,257.2 42.4027842,256.54584 41.1361112,255.2375 C39.8694382,253.92916 39.2361112,252.200011 39.2361112,250.05 C39.2361112,247.899989 39.8736048,246.179173 41.1486112,244.8875 C42.4236175,243.595827 44.073601,242.95 46.0986112,242.95 C48.1236213,242.95 49.7861047,243.57916 51.0861112,244.8375 C52.3861177,246.09584 53.0361112,247.77499 53.0361112,249.875 C53.0361112,250.358336 53.0027782,250.808331 52.9361112,251.225 L42.8361112,251.225 C42.9194449,252.125005 43.2527749,252.849997 43.8361112,253.4 C44.4194474,253.950003 45.1611067,254.225 46.0611112,254.225 C47.2777839,254.225 48.1777749,253.725005 48.7611112,252.725 L52.5611112,252.725 C52.1611092,254.041673 51.3861169,255.116663 50.2361112,255.95 C49.0861054,256.783338 47.6944527,257.2 46.0611112,257.2 Z M48.3736112,246.75 C47.748608,246.199997 46.9944489,245.925 46.1111112,245.925 C45.2277734,245.925 44.4902808,246.199997 43.8986112,246.75 C43.3069415,247.300003 42.9527784,248.033329 42.8361112,248.95 L49.3861112,248.95 C49.3361109,248.033329 48.9986143,247.300003 48.3736112,246.75 Z M73.3888889,243.15 L68.8888889,249.925 L73.3638889,257 L69.4138889,257 L66.7638889,252.825 L64.2138889,257 L60.6638889,257 L65.1388889,250.25 L60.6638889,243.15 L64.6138889,243.15 L67.2638889,247.35 L69.8138889,243.15 L73.3888889,243.15 Z M92.7916667,250.05 C92.7916667,248.783327 92.4291703,247.79167 91.7041667,247.075 C90.9791631,246.35833 90.1250049,246 89.1416667,246 C88.1583284,246 87.3041703,246.362496 86.5791667,247.0875 C85.8541631,247.812504 85.4916667,248.808327 85.4916667,250.075 C85.4916667,251.341673 85.8541631,252.337496 86.5791667,253.0625 C87.3041703,253.787504 88.1583284,254.15 89.1416667,254.15 C90.1250049,254.15 90.9791631,253.783337 91.7041667,253.05 C92.4291703,252.316663 92.7916667,251.316673 92.7916667,250.05 Z M85.4916667,245.3 C86.4750049,243.733326 87.9166572,242.95 89.8166667,242.95 C91.7166762,242.95 93.2833272,243.612493 94.5166667,244.9375 C95.7500062,246.262507 96.3666667,247.970823 96.3666667,250.0625 C96.3666667,252.154177 95.7500062,253.86666 94.5166667,255.2 C93.2833272,256.53334 91.7291761,257.2 89.8541667,257.2 C87.9791573,257.2 86.5250052,256.358342 85.4916667,254.675 L85.4916667,263.6 L81.9666667,263.6 L81.9666667,243.15 L85.4916667,243.15 L85.4916667,245.3 Z M111.544444,257.2 C109.527768,257.2 107.886117,256.54584 106.619444,255.2375 C105.352771,253.92916 104.719444,252.200011 104.719444,250.05 C104.719444,247.899989 105.356938,246.179173 106.631944,244.8875 C107.906951,243.595827 109.556934,242.95 111.581944,242.95 C113.606955,242.95 115.269438,243.57916 116.569444,244.8375 C117.869451,246.09584 118.519444,247.77499 118.519444,249.875 C118.519444,250.358336 118.486111,250.808331 118.419444,251.225 L108.319444,251.225 C108.402778,252.125005 108.736108,252.849997 109.319444,253.4 C109.902781,253.950003 110.64444,254.225 111.544444,254.225 C112.761117,254.225 113.661108,253.725005 114.244444,252.725 L118.044444,252.725 C117.644442,254.041673 116.86945,255.116663 115.719444,255.95 C114.569439,256.783338 113.177786,257.2 111.544444,257.2 Z M113.856944,246.75 C113.231941,246.199997 112.477782,245.925 111.594444,245.925 C110.711107,245.925 109.973614,246.199997 109.381944,246.75 C108.790275,247.300003 108.436112,248.033329 108.319444,248.95 L114.869444,248.95 C114.819444,248.033329 114.481948,247.300003 113.856944,246.75 Z M131.372222,243.15 L131.372222,245.6 C132.30556,243.833325 133.655547,242.95 135.422222,242.95 L135.422222,246.55 L134.547222,246.55 C133.497217,246.55 132.705558,246.812497 132.172222,247.3375 C131.638886,247.862503 131.372222,248.76666 131.372222,250.05 L131.372222,257 L127.847222,257 L127.847222,243.15 L131.372222,243.15 Z M147.75,241.15 C147.333331,241.566669 146.82917,241.775 146.2375,241.775 C145.64583,241.775 145.141669,241.566669 144.725,241.15 C144.308331,240.733331 144.1,240.225003 144.1,239.625 C144.1,239.024997 144.308331,238.516669 144.725,238.1 C145.141669,237.683331 145.64583,237.475 146.2375,237.475 C146.82917,237.475 147.333331,237.683331 147.75,238.1 C148.166669,238.516669 148.375,239.024997 148.375,239.625 C148.375,240.225003 148.166669,240.733331 147.75,241.15 Z M144.475,257 L144.475,243.15 L148,243.15 L148,257 L144.475,257 Z M164.152778,257.2 C162.136101,257.2 160.494451,256.54584 159.227778,255.2375 C157.961105,253.92916 157.327778,252.200011 157.327778,250.05 C157.327778,247.899989 157.965271,246.179173 159.240278,244.8875 C160.515284,243.595827 162.165268,242.95 164.190278,242.95 C166.215288,242.95 167.877771,243.57916 169.177778,244.8375 C170.477784,246.09584 171.127778,247.77499 171.127778,249.875 C171.127778,250.358336 171.094445,250.808331 171.027778,251.225 L160.927778,251.225 C161.011112,252.125005 161.344442,252.849997 161.927778,253.4 C162.511114,253.950003 163.252773,254.225 164.152778,254.225 C165.369451,254.225 166.269442,253.725005 166.852778,252.725 L170.652778,252.725 C170.252776,254.041673 169.477784,255.116663 168.327778,255.95 C167.177772,256.783338 165.786119,257.2 164.152778,257.2 Z M166.465278,246.75 C165.840275,246.199997 165.086116,245.925 164.202778,245.925 C163.31944,245.925 162.581947,246.199997 161.990278,246.75 C161.398608,247.300003 161.044445,248.033329 160.927778,248.95 L167.477778,248.95 C167.427778,248.033329 167.090281,247.300003 166.465278,246.75 Z M183.980556,243.15 L183.980556,245.225 C184.863893,243.708326 186.297212,242.95 188.280556,242.95 C189.863897,242.95 191.155551,243.470828 192.155556,244.5125 C193.155561,245.554172 193.655556,246.999991 193.655556,248.85 L193.655556,257 L190.155556,257 L190.155556,249.35 C190.155556,248.266661 189.880558,247.437503 189.330556,246.8625 C188.780553,246.287497 188.03056,246 187.080556,246 C186.130551,246 185.376392,246.287497 184.818056,246.8625 C184.259719,247.437503 183.980556,248.266661 183.980556,249.35 L183.980556,257 L180.455556,257 L180.455556,243.15 L183.980556,243.15 Z M202.858333,250.075 C202.858333,247.924989 203.49166,246.200007 204.758333,244.9 C206.025006,243.599994 207.666657,242.95 209.683333,242.95 C211.366675,242.95 212.774994,243.358329 213.908333,244.175 C215.041672,244.991671 215.799998,246.149993 216.183333,247.65 L212.383333,247.65 C211.933331,246.499994 211.03334,245.925 209.683333,245.925 C208.666662,245.925 207.870836,246.29583 207.295833,247.0375 C206.72083,247.77917 206.433333,248.79166 206.433333,250.075 C206.433333,251.35834 206.72083,252.37083 207.295833,253.1125 C207.870836,253.85417 208.666662,254.225 209.683333,254.225 C211.016673,254.225 211.916664,253.641673 212.383333,252.475 L216.183333,252.475 C215.783331,253.925007 215.012506,255.074996 213.870833,255.925 C212.729161,256.775004 211.333342,257.2 209.683333,257.2 C207.666657,257.2 206.025006,256.550006 204.758333,255.25 C203.49166,253.949994 202.858333,252.225011 202.858333,250.075 Z M231.236111,257.2 C229.219434,257.2 227.577784,256.54584 226.311111,255.2375 C225.044438,253.92916 224.411111,252.200011 224.411111,250.05 C224.411111,247.899989 225.048605,246.179173 226.323611,244.8875 C227.598617,243.595827 229.248601,242.95 231.273611,242.95 C233.298621,242.95 234.961105,243.57916 236.261111,244.8375 C237.561118,246.09584 238.211111,247.77499 238.211111,249.875 C238.211111,250.358336 238.177778,250.808331 238.111111,251.225 L228.011111,251.225 C228.094445,252.125005 228.427775,252.849997 229.011111,253.4 C229.594447,253.950003 230.336107,254.225 231.236111,254.225 C232.452784,254.225 233.352775,253.725005 233.936111,252.725 L237.736111,252.725 C237.336109,254.041673 236.561117,255.116663 235.411111,255.95 C234.261105,256.783338 232.869453,257.2 231.236111,257.2 Z M233.548611,246.75 C232.923608,246.199997 232.169449,245.925 231.286111,245.925 C230.402773,245.925 229.665281,246.199997 229.073611,246.75 C228.481941,247.300003 228.127778,248.033329 228.011111,248.95 L234.561111,248.95 C234.511111,248.033329 234.173614,247.300003 233.548611,246.75 Z" id="experience"></path>
                <path d="M48.7,6.15 L48.7,8.225 C49.5833378,6.70832575 51.0166568,5.95 53,5.95 C54.0500053,5.95 54.9874959,6.19166425 55.8125,6.675 C56.6375042,7.15833575 57.2749978,7.8499955 57.725,8.75 C58.2083358,7.883329 58.8708292,7.2000025 59.7125,6.7 C60.5541709,6.1999975 61.4999948,5.95 62.55,5.95 C64.2000083,5.95 65.5291617,6.4666615 66.5375,7.5 C67.5458384,8.5333385 68.05,9.983324 68.05,11.85 L68.05,20 L64.55,20 L64.55,12.35 C64.55,11.2666613 64.2750028,10.4375029 63.725,9.8625 C63.1749973,9.28749713 62.4250048,9 61.475,9 C60.5249953,9 59.7708362,9.28749713 59.2125,9.8625 C58.6541639,10.4375029 58.375,11.2666613 58.375,12.35 L58.375,20 L54.875,20 L54.875,12.35 C54.875,11.2666613 54.6000028,10.4375029 54.05,9.8625 C53.4999973,9.28749713 52.7500048,9 51.8,9 C50.8499953,9 50.0958362,9.28749713 49.5375,9.8625 C48.9791639,10.4375029 48.7,11.2666613 48.7,12.35 L48.7,20 L45.175,20 L45.175,6.15 L48.7,6.15 Z M88.1527778,13.075 C88.1527778,11.808327 87.7861148,10.8125036 87.0527778,10.0875 C86.3194408,9.36249638 85.4611161,9 84.4777778,9 C83.4944396,9 82.6402814,9.35832975 81.9152778,10.075 C81.1902742,10.7916703 80.8277778,11.783327 80.8277778,13.05 C80.8277778,14.316673 81.1944408,15.316663 81.9277778,16.05 C82.6611148,16.783337 83.5152729,17.15 84.4902778,17.15 C85.4652827,17.15 86.3194408,16.7875036 87.0527778,16.0625 C87.7861148,15.3374964 88.1527778,14.341673 88.1527778,13.075 Z M77.2527778,13.05 C77.2527778,10.9666563 77.8694383,9.26250663 79.1027778,7.9375 C80.3361173,6.61249338 81.9027683,5.95 83.8027778,5.95 C85.7027873,5.95 87.1527728,6.7333255 88.1527778,8.3 L88.1527778,6.15 L91.6527778,6.15 L91.6527778,20 L88.1527778,20 L88.1527778,17.675 C87.1027726,19.3583418 85.6444538,20.2 83.7777778,20.2 C81.9111018,20.2 80.3569507,19.5291734 79.1152778,18.1875 C77.8736049,16.8458266 77.2527778,15.1333438 77.2527778,13.05 Z M105.480556,6.15 L105.480556,8.6 C106.413894,6.8333245 107.76388,5.95 109.530556,5.95 L109.530556,9.55 L108.655556,9.55 C107.60555,9.55 106.813892,9.81249738 106.280556,10.3375 C105.74722,10.8625026 105.480556,11.7666603 105.480556,13.05 L105.480556,20 L101.955556,20 L101.955556,6.15 L105.480556,6.15 Z M122.108333,20 L118.583333,20 L118.583333,1.5 L122.108333,1.5 L122.108333,12.075 L126.783333,6.15 L131.558333,6.15 L125.408333,13.15 L131.558333,20 L126.858333,20 L122.108333,14.225 L122.108333,20 Z M145.986111,20.2 C143.969434,20.2 142.327784,19.5458399 141.061111,18.2375 C139.794438,16.9291601 139.161111,15.2000108 139.161111,13.05 C139.161111,10.8999893 139.798605,9.17917313 141.073611,7.8875 C142.348617,6.59582688 143.998601,5.95 146.023611,5.95 C148.048621,5.95 149.711105,6.57916038 151.011111,7.8375 C152.311118,9.09583963 152.961111,10.7749895 152.961111,12.875 C152.961111,13.3583358 152.927778,13.8083313 152.861111,14.225 L142.761111,14.225 C142.844445,15.1250045 143.177775,15.8499973 143.761111,16.4 C144.344447,16.9500028 145.086107,17.225 145.986111,17.225 C147.202784,17.225 148.102775,16.725005 148.686111,15.725 L152.486111,15.725 C152.086109,17.0416733 151.311117,18.1166625 150.161111,18.95 C149.011105,19.7833375 147.619453,20.2 145.986111,20.2 Z M148.298611,9.75 C147.673608,9.19999725 146.919449,8.925 146.036111,8.925 C145.152773,8.925 144.415281,9.19999725 143.823611,9.75 C143.231941,10.3000028 142.877778,11.0333288 142.761111,11.95 L149.311111,11.95 C149.261111,11.0333288 148.923614,10.3000028 148.298611,9.75 Z M167.663889,17.05 L169.338889,17.05 L169.338889,20 L167.113889,20 C165.697215,20 164.605559,19.6750033 163.838889,19.025 C163.072218,18.3749968 162.688889,17.3000075 162.688889,15.8 L162.688889,9.025 L161.213889,9.025 L161.213889,6.15 L162.688889,6.15 L162.688889,2.725 L166.213889,2.725 L166.213889,6.15 L169.313889,6.15 L169.313889,9.025 L166.213889,9.025 L166.213889,15.8 C166.213889,16.2500023 166.322221,16.5708324 166.538889,16.7625 C166.755557,16.9541676 167.130553,17.05 167.663889,17.05 Z M181.916667,4.15 C181.499998,4.56666875 180.995836,4.775 180.404167,4.775 C179.812497,4.775 179.308335,4.56666875 178.891667,4.15 C178.474998,3.73333125 178.266667,3.225003 178.266667,2.625 C178.266667,2.024997 178.474998,1.51666875 178.891667,1.1 C179.308335,0.68333125 179.812497,0.475 180.404167,0.475 C180.995836,0.475 181.499998,0.68333125 181.916667,1.1 C182.333335,1.51666875 182.541667,2.024997 182.541667,2.625 C182.541667,3.225003 182.333335,3.73333125 181.916667,4.15 Z M178.641667,20 L178.641667,6.15 L182.166667,6.15 L182.166667,20 L178.641667,20 Z M195.994444,6.15 L195.994444,8.225 C196.877782,6.70832575 198.311101,5.95 200.294444,5.95 C201.877786,5.95 203.169439,6.47082813 204.169444,7.5125 C205.169449,8.55417188 205.669444,9.99999075 205.669444,11.85 L205.669444,20 L202.169444,20 L202.169444,12.35 C202.169444,11.2666613 201.894447,10.4375029 201.344444,9.8625 C200.794442,9.28749713 200.044449,9 199.094444,9 C198.14444,9 197.390281,9.28749713 196.831944,9.8625 C196.273608,10.4375029 195.994444,11.2666613 195.994444,12.35 L195.994444,20 L192.469444,20 L192.469444,6.15 L195.994444,6.15 Z M214.872222,13.05 C214.872222,10.9666563 215.488883,9.26250663 216.722222,7.9375 C217.955562,6.61249338 219.522213,5.95 221.422222,5.95 C223.322232,5.95 224.772217,6.7333255 225.772222,8.3 L225.772222,6.15 L229.272222,6.15 L229.272222,20.1 C229.272222,22.0833433 228.688895,23.7041604 227.522222,24.9625 C226.35555,26.2208396 224.718066,26.85 222.609722,26.85 C220.501378,26.85 218.826395,26.4125044 217.584722,25.5375 C216.343049,24.6624956 215.63889,23.4166748 215.472222,21.8 L218.922222,21.8 C219.13889,22.4166698 219.555552,22.9041649 220.172222,23.2625 C220.788892,23.6208351 221.563884,23.8 222.497222,23.8 C223.43056,23.8 224.209719,23.4916698 224.834722,22.875 C225.459725,22.2583303 225.772222,21.3333395 225.772222,20.1 L225.772222,17.675 C224.722217,19.3583418 223.263898,20.2 221.397222,20.2 C219.530546,20.2 217.976395,19.5291734 216.734722,18.1875 C215.493049,16.8458266 214.872222,15.1333438 214.872222,13.05 Z M225.772222,13.075 C225.772222,11.808327 225.405559,10.8125036 224.672222,10.0875 C223.938885,9.36249638 223.08056,9 222.097222,9 C221.113884,9 220.259726,9.35832975 219.534722,10.075 C218.809719,10.7916703 218.447222,11.783327 218.447222,13.05 C218.447222,14.316673 218.813885,15.316663 219.547222,16.05 C220.280559,16.783337 221.134717,17.15 222.109722,17.15 C223.084727,17.15 223.938885,16.7875036 224.672222,16.0625 C225.405559,15.3374964 225.772222,14.341673 225.772222,13.075 Z" id="marketing"></path>
            </g>
        </g>
    </g>
</svg>