<?xml version="1.0" encoding="UTF-8" standalone="no"?>
<svg width="84px" height="84px" viewBox="0 0 84 84" version="1.1" xmlns="http://www.w3.org/2000/svg" xmlns:xlink="http://www.w3.org/1999/xlink" xmlns:sketch="http://www.bohemiancoding.com/sketch/ns">
    <!-- Generator: Sketch 3.3.2 (12043) - http://www.bohemiancoding.com/sketch -->
    <title>noun_70949_cc</title>
    <desc>Created with Sketch.</desc>
    <defs></defs>
    <g id="Page-1" stroke="none" stroke-width="1" fill="none" fill-rule="evenodd" sketch:type="MSPage">
        <g id="noun_70949_cc" sketch:type="MSLayerGroup" fill="#FF8737">
            <path d="M46.509,23.429 C45.728,22.648 44.462,22.648 43.681,23.429 C42.9,24.21 42.9,25.476 43.681,26.257 L57.424,40 L23,40 C21.896,40 21,40.896 21,42 C21,43.104 21.896,44 23,44 L56.912,44 L43.681,57.231 C42.9,58.012 42.9,59.279 43.681,60.06 C44.072,60.45 44.583,60.645 45.095,60.645 C45.607,60.645 46.118,60.45 46.509,60.06 L63.411,43.158 C64.192,42.377 64.192,41.111 63.411,40.329 L46.509,23.429 L46.509,23.429 Z" id="Shape" sketch:type="MSShapeGroup"></path>
            <path d="M42,0 C19.233,0 0,19.233 0,42 C0,64.767 19.233,84 42,84 C64.767,84 84,64.767 84,42 C84,19.233 64.767,0 42,0 L42,0 Z M42,80 C21.402,80 4,62.598 4,42 C4,21.402 21.402,4 42,4 C62.598,4 80,21.402 80,42 C80,62.598 62.598,80 42,80 L42,80 Z" id="Shape" sketch:type="MSShapeGroup"></path>
        </g>
    </g>
</svg>